<?xml version="1.0" encoding="UTF-8" standalone="no"?>
<!DOCTYPE svg PUBLIC "-//W3C//DTD SVG 1.1//EN" "http://www.w3.org/Graphics/SVG/1.1/DTD/svg11.dtd">
<svg width="100%" height="100%" viewBox="0 0 1374 333" version="1.1" xmlns="http://www.w3.org/2000/svg" xmlns:xlink="http://www.w3.org/1999/xlink" xml:space="preserve" xmlns:serif="http://www.serif.com/" style="fill-rule:evenodd;clip-rule:evenodd;">
    <g transform="matrix(1,0,0,1,-273.254,-373.734)">
        <g transform="matrix(0.917056,0,0,0.917056,439.542,540.004)">
            <g transform="matrix(1,0,0,1,-181.328,-181.309)">
                <clipPath id="_clip1">
                    <rect x="0" y="0" width="362.656" height="362.618"/>
                </clipPath>
                <g clip-path="url(#_clip1)">
                    <g id="layer1" transform="matrix(1,0,0,1,-138.448,-194.8)">
                        <path id="path1" d="M312.914,553.691C291.503,546.057 296.977,514.531 319.738,514.387C340.854,514.252 347.87,543.206 328.963,552.457C323.58,555.09 318.035,555.517 312.914,553.691ZM253.53,522.168C236.846,516.705 237.461,502.121 255.911,465.694C292.578,393.301 348.153,394.171 384.049,467.7C401.289,503.015 402.103,515.094 387.659,521.307C376.209,526.233 368.055,520.582 362.253,503.7C349.891,467.729 334.176,437.864 321.408,426.075C314.819,419.991 289.374,464.826 275.949,506.175C271.723,519.191 263.139,525.314 253.53,522.168ZM182.517,452.748C175.044,449.268 171.199,440.678 173.573,432.766C175.798,425.349 178.968,423.006 193.678,417.905C226.059,406.676 254.025,392.222 266.503,380.268C271.159,375.806 271.159,375.806 266.179,371.096C252.608,358.262 219.34,341.654 186.784,331.461C171.071,326.541 167.73,308.759 180.862,299.939C187.38,295.562 191.086,296.024 210.034,303.575C310.489,343.61 308.018,411.105 204.66,450.394C191.948,455.226 188.603,455.582 182.517,452.748ZM438.784,452.054C340.121,417.359 327.076,352.264 410.652,311.67C444.868,295.051 456.485,293.685 463.746,305.428C471.4,317.808 465.596,326.812 445.438,333.827C412.296,345.362 386.371,358.699 372.784,371.205C367.909,375.693 367.909,375.693 371.659,379.571C382.862,391.159 413.166,406.891 445.534,417.923C462.207,423.606 466.188,427.356 466.132,437.325C466.05,451.612 454.784,457.68 438.784,452.054ZM155.28,395.374C136.808,389.755 136.184,362.941 154.381,356.741C170.557,351.229 185.783,366.396 180.386,382.645C177.163,392.35 165.229,398.401 155.28,395.374ZM469.909,394.346C450.165,384.902 456.405,355.589 478.159,355.589C496.22,355.589 505.353,377.731 492.458,390.254C486.479,396.062 477.067,397.769 469.909,394.346ZM307.909,338.41C282.681,331.078 262.057,305.776 245.176,261.45C238.04,242.713 241.041,232.593 254.626,229.575C266.316,226.978 270.951,231.386 278.328,252.117C291.251,288.43 312.673,327.075 319.88,327.075C326.832,327.075 349.259,285.589 362.047,249.075C368.049,231.936 374.732,226.52 385.756,229.859C402.489,234.928 401.742,249.484 382.838,286.659C362.57,326.518 334.263,346.069 307.909,338.41ZM313.323,236.747C291.137,228.832 297.072,196.168 320.461,197.461C332.181,198.109 339.77,206.015 339.77,217.575C339.77,231.39 326.095,241.303 313.323,236.747Z" style="fill:rgb(0,48,73);fill-rule:nonzero;stroke:rgb(0,48,73);stroke-width:5.25px;"/>
                    </g>
                </g>
            </g>
        </g>
        <g transform="matrix(0.595086,0,0,0.595086,276.975,213.175)">
            <g transform="matrix(656.579,0,0,656.579,619.32,798.469)">
                <path d="M0.517,-0.642L0.424,-0.587C0.407,-0.617 0.391,-0.636 0.375,-0.646C0.359,-0.656 0.338,-0.661 0.312,-0.661C0.28,-0.661 0.254,-0.652 0.233,-0.634C0.213,-0.617 0.202,-0.595 0.202,-0.568C0.202,-0.531 0.229,-0.501 0.284,-0.479L0.359,-0.448C0.421,-0.424 0.465,-0.393 0.494,-0.358C0.522,-0.322 0.536,-0.278 0.536,-0.227C0.536,-0.157 0.513,-0.1 0.467,-0.055C0.42,-0.009 0.362,0.014 0.293,0.014C0.228,0.014 0.174,-0.006 0.131,-0.044C0.089,-0.083 0.063,-0.138 0.053,-0.208L0.168,-0.233C0.173,-0.189 0.182,-0.159 0.195,-0.142C0.219,-0.109 0.253,-0.093 0.298,-0.093C0.333,-0.093 0.363,-0.105 0.386,-0.128C0.41,-0.152 0.421,-0.182 0.421,-0.219C0.421,-0.233 0.419,-0.247 0.415,-0.259C0.411,-0.271 0.405,-0.282 0.396,-0.293C0.388,-0.303 0.376,-0.313 0.363,-0.322C0.349,-0.33 0.333,-0.339 0.314,-0.347L0.241,-0.377C0.138,-0.421 0.086,-0.485 0.086,-0.569C0.086,-0.625 0.108,-0.673 0.151,-0.711C0.195,-0.749 0.249,-0.769 0.313,-0.769C0.4,-0.769 0.468,-0.726 0.517,-0.642Z" style="fill:rgb(0,48,73);fill-rule:nonzero;"/>
            </g>
            <g transform="matrix(656.579,0,0,656.579,1002.11,798.469)">
                <path d="M0.204,-0.306L0.204,-0L0.09,-0L0.09,-0.754L0.219,-0.754C0.282,-0.754 0.33,-0.75 0.362,-0.741C0.395,-0.732 0.424,-0.715 0.448,-0.691C0.492,-0.649 0.513,-0.595 0.513,-0.531C0.513,-0.462 0.49,-0.407 0.444,-0.367C0.398,-0.326 0.335,-0.306 0.257,-0.306L0.204,-0.306ZM0.204,-0.412L0.247,-0.412C0.351,-0.412 0.403,-0.452 0.403,-0.532C0.403,-0.61 0.349,-0.649 0.242,-0.649L0.204,-0.649L0.204,-0.412Z" style="fill:rgb(0,48,73);fill-rule:nonzero;"/>
            </g>
            <g transform="matrix(656.579,0,0,656.579,1320.46,798.469)">
                <path d="M0.533,-0.183L0.21,-0.183L0.126,-0L0.004,-0L0.377,-0.801L0.737,-0L0.612,-0L0.533,-0.183ZM0.487,-0.29L0.375,-0.546L0.258,-0.29L0.487,-0.29Z" style="fill:rgb(0,48,73);fill-rule:nonzero;"/>
            </g>
            <g transform="matrix(656.579,0,0,656.579,1806.8,798.469)">
                <path d="M0.09,-0L0.09,-0.805L0.64,-0.23L0.64,-0.754L0.754,-0.754L0.754,0.046L0.204,-0.528L0.204,-0L0.09,-0Z" style="fill:rgb(0,48,73);fill-rule:nonzero;"/>
            </g>
        </g>
    </g>
</svg>
