<svg xmlns="http://www.w3.org/2000/svg" version="1.1" xmlns:xlink="http://www.w3.org/1999/xlink" width="500" height="500"><svg xmlns="http://www.w3.org/2000/svg" xmlns:xlink="http://www.w3.org/1999/xlink" width="500" zoomAndPan="magnify" viewBox="0 0 375 374.999991" height="500" preserveAspectRatio="xMidYMid meet" version="1.2"><defs><clipPath id="SvgjsClipPath1035"><path d="M 181 170 L 217 170 L 217 212 L 181 212 Z M 181 170 "></path></clipPath><clipPath id="SvgjsClipPath1034"><path d="M 204.03125 207.464844 C 200.492188 196.367188 192.238281 174.515625 181.394531 171.757812 C 181.394531 171.757812 201.96875 161.101562 216.410156 203.398438 C 217.566406 206.777344 215.757812 210.457031 212.382812 211.632812 C 208.921875 212.839844 205.144531 210.957031 204.03125 207.464844 Z M 204.03125 207.464844 "></path></clipPath><linearGradient x1="169.308" gradientTransform="matrix(-0.333667,0,0,-0.333667,255.567378,233.81332)" y1="62.862017" x2="169.308" gradientUnits="userSpaceOnUse" y2="217.912037" id="SvgjsLinearGradient1033"><stop style="stop-color:#5271ff;stop-opacity:1;" offset="0"></stop><stop style="stop-color:#5271ff;stop-opacity:1;" offset="0.125"></stop><stop style="stop-color:#5271ff;stop-opacity:1;" offset="0.15625"></stop><stop style="stop-color:#5171fe;stop-opacity:1;" offset="0.164063"></stop><stop style="stop-color:#5170fe;stop-opacity:1;" offset="0.171875"></stop><stop style="stop-color:#5070fd;stop-opacity:1;" offset="0.179688"></stop><stop style="stop-color:#4f70fc;stop-opacity:1;" offset="0.1875"></stop><stop style="stop-color:#4e6ffb;stop-opacity:1;" offset="0.195313"></stop><stop style="stop-color:#4d6ffa;stop-opacity:1;" offset="0.203125"></stop><stop style="stop-color:#4d6efa;stop-opacity:1;" offset="0.210938"></stop><stop style="stop-color:#4c6ef9;stop-opacity:1;" offset="0.21875"></stop><stop style="stop-color:#4b6ef8;stop-opacity:1;" offset="0.226563"></stop><stop style="stop-color:#4a6df7;stop-opacity:1;" offset="0.234375"></stop><stop style="stop-color:#4a6df6;stop-opacity:1;" offset="0.242188"></stop><stop style="stop-color:#496df6;stop-opacity:1;" offset="0.25"></stop><stop style="stop-color:#486cf5;stop-opacity:1;" offset="0.257813"></stop><stop style="stop-color:#476cf4;stop-opacity:1;" offset="0.265625"></stop><stop style="stop-color:#466bf3;stop-opacity:1;" offset="0.273438"></stop><stop style="stop-color:#466bf2;stop-opacity:1;" offset="0.28125"></stop><stop style="stop-color:#456bf2;stop-opacity:1;" offset="0.289063"></stop><stop style="stop-color:#446af1;stop-opacity:1;" offset="0.296875"></stop><stop style="stop-color:#436af0;stop-opacity:1;" offset="0.304688"></stop><stop style="stop-color:#426aef;stop-opacity:1;" offset="0.3125"></stop><stop style="stop-color:#4269ef;stop-opacity:1;" offset="0.320313"></stop><stop style="stop-color:#4169ee;stop-opacity:1;" offset="0.328125"></stop><stop style="stop-color:#4068ed;stop-opacity:1;" offset="0.335938"></stop><stop style="stop-color:#3f68ec;stop-opacity:1;" offset="0.34375"></stop><stop style="stop-color:#3e68eb;stop-opacity:1;" offset="0.351563"></stop><stop style="stop-color:#3e67eb;stop-opacity:1;" offset="0.359375"></stop><stop style="stop-color:#3d67ea;stop-opacity:1;" offset="0.367188"></stop><stop style="stop-color:#3c67e9;stop-opacity:1;" offset="0.375"></stop><stop style="stop-color:#3b66e8;stop-opacity:1;" offset="0.382813"></stop><stop style="stop-color:#3b66e7;stop-opacity:1;" offset="0.390625"></stop><stop style="stop-color:#3a65e7;stop-opacity:1;" offset="0.398438"></stop><stop style="stop-color:#3965e6;stop-opacity:1;" offset="0.40625"></stop><stop style="stop-color:#3865e5;stop-opacity:1;" offset="0.414063"></stop><stop style="stop-color:#3764e4;stop-opacity:1;" offset="0.421875"></stop><stop style="stop-color:#3764e3;stop-opacity:1;" offset="0.429688"></stop><stop style="stop-color:#3664e3;stop-opacity:1;" offset="0.4375"></stop><stop style="stop-color:#3563e2;stop-opacity:1;" offset="0.445313"></stop><stop style="stop-color:#3463e1;stop-opacity:1;" offset="0.453125"></stop><stop style="stop-color:#3362e0;stop-opacity:1;" offset="0.460938"></stop><stop style="stop-color:#3362e0;stop-opacity:1;" offset="0.46875"></stop><stop style="stop-color:#3262df;stop-opacity:1;" offset="0.476562"></stop><stop style="stop-color:#3161de;stop-opacity:1;" offset="0.484375"></stop><stop style="stop-color:#3061dd;stop-opacity:1;" offset="0.492188"></stop><stop style="stop-color:#2f61dc;stop-opacity:1;" offset="0.5"></stop><stop style="stop-color:#2f60dc;stop-opacity:1;" offset="0.507812"></stop><stop style="stop-color:#2e60db;stop-opacity:1;" offset="0.515625"></stop><stop style="stop-color:#2d5fda;stop-opacity:1;" offset="0.523438"></stop><stop style="stop-color:#2c5fd9;stop-opacity:1;" offset="0.53125"></stop><stop style="stop-color:#2c5fd8;stop-opacity:1;" offset="0.539062"></stop><stop style="stop-color:#2b5ed8;stop-opacity:1;" offset="0.546875"></stop><stop style="stop-color:#2a5ed7;stop-opacity:1;" offset="0.554688"></stop><stop style="stop-color:#295ed6;stop-opacity:1;" offset="0.5625"></stop><stop style="stop-color:#285dd5;stop-opacity:1;" offset="0.570312"></stop><stop style="stop-color:#285dd4;stop-opacity:1;" offset="0.578125"></stop><stop style="stop-color:#275cd4;stop-opacity:1;" offset="0.585938"></stop><stop style="stop-color:#265cd3;stop-opacity:1;" offset="0.59375"></stop><stop style="stop-color:#255cd2;stop-opacity:1;" offset="0.601562"></stop><stop style="stop-color:#245bd1;stop-opacity:1;" offset="0.609375"></stop><stop style="stop-color:#245bd1;stop-opacity:1;" offset="0.617188"></stop><stop style="stop-color:#235ad0;stop-opacity:1;" offset="0.625"></stop><stop style="stop-color:#225acf;stop-opacity:1;" offset="0.632812"></stop><stop style="stop-color:#215ace;stop-opacity:1;" offset="0.640625"></stop><stop style="stop-color:#2059cd;stop-opacity:1;" offset="0.648438"></stop><stop style="stop-color:#2059cd;stop-opacity:1;" offset="0.65625"></stop><stop style="stop-color:#1f59cc;stop-opacity:1;" offset="0.664062"></stop><stop style="stop-color:#1e58cb;stop-opacity:1;" offset="0.671875"></stop><stop style="stop-color:#1d58ca;stop-opacity:1;" offset="0.679688"></stop><stop style="stop-color:#1d57c9;stop-opacity:1;" offset="0.6875"></stop><stop style="stop-color:#1c57c9;stop-opacity:1;" offset="0.695312"></stop><stop style="stop-color:#1b57c8;stop-opacity:1;" offset="0.703125"></stop><stop style="stop-color:#1a56c7;stop-opacity:1;" offset="0.710938"></stop><stop style="stop-color:#1956c6;stop-opacity:1;" offset="0.71875"></stop><stop style="stop-color:#1956c5;stop-opacity:1;" offset="0.726562"></stop><stop style="stop-color:#1855c5;stop-opacity:1;" offset="0.734375"></stop><stop style="stop-color:#1755c4;stop-opacity:1;" offset="0.742188"></stop><stop style="stop-color:#1654c3;stop-opacity:1;" offset="0.75"></stop><stop style="stop-color:#1554c2;stop-opacity:1;" offset="0.757812"></stop><stop style="stop-color:#1554c2;stop-opacity:1;" offset="0.765625"></stop><stop style="stop-color:#1453c1;stop-opacity:1;" offset="0.773438"></stop><stop style="stop-color:#1353c0;stop-opacity:1;" offset="0.78125"></stop><stop style="stop-color:#1253bf;stop-opacity:1;" offset="0.789062"></stop><stop style="stop-color:#1152be;stop-opacity:1;" offset="0.796875"></stop><stop style="stop-color:#1152be;stop-opacity:1;" offset="0.804688"></stop><stop style="stop-color:#1051bd;stop-opacity:1;" offset="0.8125"></stop><stop style="stop-color:#0f51bc;stop-opacity:1;" offset="0.820312"></stop><stop style="stop-color:#0e51bb;stop-opacity:1;" offset="0.828125"></stop><stop style="stop-color:#0e50ba;stop-opacity:1;" offset="0.835938"></stop><stop style="stop-color:#0d50ba;stop-opacity:1;" offset="0.84375"></stop><stop style="stop-color:#0c50b9;stop-opacity:1;" offset="0.851562"></stop><stop style="stop-color:#0b4fb8;stop-opacity:1;" offset="0.859375"></stop><stop style="stop-color:#0a4fb7;stop-opacity:1;" offset="0.867188"></stop><stop style="stop-color:#0a4eb6;stop-opacity:1;" offset="0.875"></stop><stop style="stop-color:#094eb6;stop-opacity:1;" offset="0.882812"></stop><stop style="stop-color:#084eb5;stop-opacity:1;" offset="0.890625"></stop><stop style="stop-color:#074db4;stop-opacity:1;" offset="0.898438"></stop><stop style="stop-color:#064db3;stop-opacity:1;" offset="0.90625"></stop><stop style="stop-color:#064db3;stop-opacity:1;" offset="0.914062"></stop><stop style="stop-color:#054cb2;stop-opacity:1;" offset="0.921875"></stop><stop style="stop-color:#044cb1;stop-opacity:1;" offset="0.929688"></stop><stop style="stop-color:#034bb0;stop-opacity:1;" offset="0.9375"></stop><stop style="stop-color:#024baf;stop-opacity:1;" offset="0.945312"></stop><stop style="stop-color:#024baf;stop-opacity:1;" offset="0.953125"></stop><stop style="stop-color:#014aae;stop-opacity:1;" offset="0.960938"></stop><stop style="stop-color:#004aad;stop-opacity:1;" offset="0.96875"></stop><stop style="stop-color:#004aad;stop-opacity:1;" offset="1"></stop></linearGradient><clipPath id="SvgjsClipPath1032"><path d="M 179 208 L 196 208 L 196 223.972656 L 179 223.972656 Z M 179 208 "></path></clipPath><clipPath id="SvgjsClipPath1031"><path d="M 132 151 L 174 151 L 174 187 L 132 187 Z M 132 151 "></path></clipPath><clipPath id="SvgjsClipPath1030"><path d="M 137.089844 173.90625 C 148.191406 170.367188 170.039062 162.109375 172.796875 151.265625 C 172.796875 151.265625 183.453125 171.84375 141.15625 186.285156 C 137.777344 187.441406 134.097656 185.632812 132.921875 182.257812 C 131.714844 178.792969 133.597656 175.019531 137.089844 173.90625 Z M 137.089844 173.90625 "></path></clipPath><linearGradient x1="181.853" gradientTransform="matrix(0,-0.333667,0.333667,0,116.412737,229.626797)" y1="45.854978" x2="181.853" gradientUnits="userSpaceOnUse" y2="200.914976" id="SvgjsLinearGradient1029"><stop style="stop-color:#5271ff;stop-opacity:1;" offset="0"></stop><stop style="stop-color:#5271ff;stop-opacity:1;" offset="0.125"></stop><stop style="stop-color:#5271ff;stop-opacity:1;" offset="0.15625"></stop><stop style="stop-color:#5171fe;stop-opacity:1;" offset="0.164062"></stop><stop style="stop-color:#5170fe;stop-opacity:1;" offset="0.171875"></stop><stop style="stop-color:#5070fd;stop-opacity:1;" offset="0.179687"></stop><stop style="stop-color:#4f70fc;stop-opacity:1;" offset="0.1875"></stop><stop style="stop-color:#4e6ffb;stop-opacity:1;" offset="0.195312"></stop><stop style="stop-color:#4d6ffa;stop-opacity:1;" offset="0.203125"></stop><stop style="stop-color:#4d6efa;stop-opacity:1;" offset="0.210938"></stop><stop style="stop-color:#4c6ef9;stop-opacity:1;" offset="0.21875"></stop><stop style="stop-color:#4b6ef8;stop-opacity:1;" offset="0.226562"></stop><stop style="stop-color:#4a6df7;stop-opacity:1;" offset="0.234375"></stop><stop style="stop-color:#4a6df6;stop-opacity:1;" offset="0.242188"></stop><stop style="stop-color:#496df6;stop-opacity:1;" offset="0.25"></stop><stop style="stop-color:#486cf5;stop-opacity:1;" offset="0.257812"></stop><stop style="stop-color:#476cf4;stop-opacity:1;" offset="0.265625"></stop><stop style="stop-color:#466bf3;stop-opacity:1;" offset="0.273438"></stop><stop style="stop-color:#466bf2;stop-opacity:1;" offset="0.28125"></stop><stop style="stop-color:#456bf2;stop-opacity:1;" offset="0.289062"></stop><stop style="stop-color:#446af1;stop-opacity:1;" offset="0.296875"></stop><stop style="stop-color:#436af0;stop-opacity:1;" offset="0.304687"></stop><stop style="stop-color:#426aef;stop-opacity:1;" offset="0.3125"></stop><stop style="stop-color:#4269ef;stop-opacity:1;" offset="0.320312"></stop><stop style="stop-color:#4169ee;stop-opacity:1;" offset="0.328125"></stop><stop style="stop-color:#4068ed;stop-opacity:1;" offset="0.335937"></stop><stop style="stop-color:#3f68ec;stop-opacity:1;" offset="0.34375"></stop><stop style="stop-color:#3e68eb;stop-opacity:1;" offset="0.351562"></stop><stop style="stop-color:#3e67eb;stop-opacity:1;" offset="0.359375"></stop><stop style="stop-color:#3d67ea;stop-opacity:1;" offset="0.367187"></stop><stop style="stop-color:#3c67e9;stop-opacity:1;" offset="0.375"></stop><stop style="stop-color:#3b66e8;stop-opacity:1;" offset="0.382812"></stop><stop style="stop-color:#3b66e7;stop-opacity:1;" offset="0.390625"></stop><stop style="stop-color:#3a65e7;stop-opacity:1;" offset="0.398437"></stop><stop style="stop-color:#3965e6;stop-opacity:1;" offset="0.40625"></stop><stop style="stop-color:#3865e5;stop-opacity:1;" offset="0.414062"></stop><stop style="stop-color:#3764e4;stop-opacity:1;" offset="0.421875"></stop><stop style="stop-color:#3764e3;stop-opacity:1;" offset="0.429687"></stop><stop style="stop-color:#3664e3;stop-opacity:1;" offset="0.4375"></stop><stop style="stop-color:#3563e2;stop-opacity:1;" offset="0.445312"></stop><stop style="stop-color:#3463e1;stop-opacity:1;" offset="0.453125"></stop><stop style="stop-color:#3362e0;stop-opacity:1;" offset="0.460937"></stop><stop style="stop-color:#3362e0;stop-opacity:1;" offset="0.46875"></stop><stop style="stop-color:#3262df;stop-opacity:1;" offset="0.476562"></stop><stop style="stop-color:#3161de;stop-opacity:1;" offset="0.484375"></stop><stop style="stop-color:#3061dd;stop-opacity:1;" offset="0.492187"></stop><stop style="stop-color:#2f61dc;stop-opacity:1;" offset="0.5"></stop><stop style="stop-color:#2f60dc;stop-opacity:1;" offset="0.507812"></stop><stop style="stop-color:#2e60db;stop-opacity:1;" offset="0.515625"></stop><stop style="stop-color:#2d5fda;stop-opacity:1;" offset="0.523438"></stop><stop style="stop-color:#2c5fd9;stop-opacity:1;" offset="0.53125"></stop><stop style="stop-color:#2c5fd8;stop-opacity:1;" offset="0.539062"></stop><stop style="stop-color:#2b5ed8;stop-opacity:1;" offset="0.546875"></stop><stop style="stop-color:#2a5ed7;stop-opacity:1;" offset="0.554688"></stop><stop style="stop-color:#295dd6;stop-opacity:1;" offset="0.5625"></stop><stop style="stop-color:#285dd5;stop-opacity:1;" offset="0.570312"></stop><stop style="stop-color:#285dd4;stop-opacity:1;" offset="0.578125"></stop><stop style="stop-color:#275cd4;stop-opacity:1;" offset="0.585937"></stop><stop style="stop-color:#265cd3;stop-opacity:1;" offset="0.59375"></stop><stop style="stop-color:#255cd2;stop-opacity:1;" offset="0.601562"></stop><stop style="stop-color:#245bd1;stop-opacity:1;" offset="0.609375"></stop><stop style="stop-color:#245bd1;stop-opacity:1;" offset="0.617187"></stop><stop style="stop-color:#235ad0;stop-opacity:1;" offset="0.625"></stop><stop style="stop-color:#225acf;stop-opacity:1;" offset="0.632812"></stop><stop style="stop-color:#215ace;stop-opacity:1;" offset="0.640625"></stop><stop style="stop-color:#2059cd;stop-opacity:1;" offset="0.648437"></stop><stop style="stop-color:#2059cd;stop-opacity:1;" offset="0.65625"></stop><stop style="stop-color:#1f59cc;stop-opacity:1;" offset="0.664062"></stop><stop style="stop-color:#1e58cb;stop-opacity:1;" offset="0.671875"></stop><stop style="stop-color:#1d58ca;stop-opacity:1;" offset="0.679687"></stop><stop style="stop-color:#1d57c9;stop-opacity:1;" offset="0.6875"></stop><stop style="stop-color:#1c57c9;stop-opacity:1;" offset="0.695312"></stop><stop style="stop-color:#1b57c8;stop-opacity:1;" offset="0.703125"></stop><stop style="stop-color:#1a56c7;stop-opacity:1;" offset="0.710937"></stop><stop style="stop-color:#1956c6;stop-opacity:1;" offset="0.71875"></stop><stop style="stop-color:#1956c5;stop-opacity:1;" offset="0.726562"></stop><stop style="stop-color:#1855c5;stop-opacity:1;" offset="0.734375"></stop><stop style="stop-color:#1755c4;stop-opacity:1;" offset="0.742187"></stop><stop style="stop-color:#1654c3;stop-opacity:1;" offset="0.75"></stop><stop style="stop-color:#1554c2;stop-opacity:1;" offset="0.757812"></stop><stop style="stop-color:#1554c2;stop-opacity:1;" offset="0.765625"></stop><stop style="stop-color:#1453c1;stop-opacity:1;" offset="0.773437"></stop><stop style="stop-color:#1353c0;stop-opacity:1;" offset="0.78125"></stop><stop style="stop-color:#1253bf;stop-opacity:1;" offset="0.789062"></stop><stop style="stop-color:#1152be;stop-opacity:1;" offset="0.796875"></stop><stop style="stop-color:#1152be;stop-opacity:1;" offset="0.804687"></stop><stop style="stop-color:#1051bd;stop-opacity:1;" offset="0.8125"></stop><stop style="stop-color:#0f51bc;stop-opacity:1;" offset="0.820312"></stop><stop style="stop-color:#0e51bb;stop-opacity:1;" offset="0.828125"></stop><stop style="stop-color:#0e50ba;stop-opacity:1;" offset="0.835937"></stop><stop style="stop-color:#0d50ba;stop-opacity:1;" offset="0.84375"></stop><stop style="stop-color:#0c50b9;stop-opacity:1;" offset="0.851562"></stop><stop style="stop-color:#0b4fb8;stop-opacity:1;" offset="0.859375"></stop><stop style="stop-color:#0a4fb7;stop-opacity:1;" offset="0.867187"></stop><stop style="stop-color:#0a4eb6;stop-opacity:1;" offset="0.875"></stop><stop style="stop-color:#094eb6;stop-opacity:1;" offset="0.882812"></stop><stop style="stop-color:#084eb5;stop-opacity:1;" offset="0.890625"></stop><stop style="stop-color:#074db4;stop-opacity:1;" offset="0.898438"></stop><stop style="stop-color:#064db3;stop-opacity:1;" offset="0.90625"></stop><stop style="stop-color:#064db2;stop-opacity:1;" offset="0.914062"></stop><stop style="stop-color:#054cb2;stop-opacity:1;" offset="0.921875"></stop><stop style="stop-color:#044cb1;stop-opacity:1;" offset="0.929688"></stop><stop style="stop-color:#034bb0;stop-opacity:1;" offset="0.9375"></stop><stop style="stop-color:#024baf;stop-opacity:1;" offset="0.945312"></stop><stop style="stop-color:#024baf;stop-opacity:1;" offset="0.953125"></stop><stop style="stop-color:#014aae;stop-opacity:1;" offset="0.960938"></stop><stop style="stop-color:#004aad;stop-opacity:1;" offset="0.96875"></stop><stop style="stop-color:#004aad;stop-opacity:1;" offset="1"></stop></linearGradient><clipPath id="SvgjsClipPath1028"><path d="M 120.582031 149 L 137 149 L 137 165 L 120.582031 165 Z M 120.582031 149 "></path></clipPath><clipPath id="SvgjsClipPath1027"><path d="M 157 102 L 194 102 L 194 144 L 157 144 Z M 157 102 "></path></clipPath><clipPath id="SvgjsClipPath1026"><path d="M 170.644531 106.964844 C 174.183594 118.0625 182.441406 139.914062 193.285156 142.671875 C 193.285156 142.671875 172.707031 153.324219 158.265625 111.03125 C 157.113281 107.648438 158.921875 103.972656 162.292969 102.796875 C 165.757812 101.585938 169.53125 103.472656 170.644531 106.964844 Z M 170.644531 106.964844 "></path></clipPath><linearGradient x1="164.848007" gradientTransform="matrix(0.333667,0,0,0.333667,120.598581,90.472838)" y1="33.309978" x2="164.848007" gradientUnits="userSpaceOnUse" y2="188.369977" id="SvgjsLinearGradient1025"><stop style="stop-color:#5271ff;stop-opacity:1;" offset="0"></stop><stop style="stop-color:#5271ff;stop-opacity:1;" offset="0.125"></stop><stop style="stop-color:#5271ff;stop-opacity:1;" offset="0.15625"></stop><stop style="stop-color:#5171fe;stop-opacity:1;" offset="0.164062"></stop><stop style="stop-color:#5170fe;stop-opacity:1;" offset="0.171875"></stop><stop style="stop-color:#5070fd;stop-opacity:1;" offset="0.179687"></stop><stop style="stop-color:#4f70fc;stop-opacity:1;" offset="0.1875"></stop><stop style="stop-color:#4e6ffb;stop-opacity:1;" offset="0.195312"></stop><stop style="stop-color:#4d6ffa;stop-opacity:1;" offset="0.203125"></stop><stop style="stop-color:#4d6efa;stop-opacity:1;" offset="0.210937"></stop><stop style="stop-color:#4c6ef9;stop-opacity:1;" offset="0.21875"></stop><stop style="stop-color:#4b6ef8;stop-opacity:1;" offset="0.226562"></stop><stop style="stop-color:#4a6df7;stop-opacity:1;" offset="0.234375"></stop><stop style="stop-color:#4a6df6;stop-opacity:1;" offset="0.242188"></stop><stop style="stop-color:#496df6;stop-opacity:1;" offset="0.25"></stop><stop style="stop-color:#486cf5;stop-opacity:1;" offset="0.257812"></stop><stop style="stop-color:#476cf4;stop-opacity:1;" offset="0.265625"></stop><stop style="stop-color:#466bf3;stop-opacity:1;" offset="0.273438"></stop><stop style="stop-color:#466bf2;stop-opacity:1;" offset="0.28125"></stop><stop style="stop-color:#456bf2;stop-opacity:1;" offset="0.289062"></stop><stop style="stop-color:#446af1;stop-opacity:1;" offset="0.296875"></stop><stop style="stop-color:#436af0;stop-opacity:1;" offset="0.304687"></stop><stop style="stop-color:#426aef;stop-opacity:1;" offset="0.3125"></stop><stop style="stop-color:#4269ef;stop-opacity:1;" offset="0.320312"></stop><stop style="stop-color:#4169ee;stop-opacity:1;" offset="0.328125"></stop><stop style="stop-color:#4068ed;stop-opacity:1;" offset="0.335938"></stop><stop style="stop-color:#3f68ec;stop-opacity:1;" offset="0.34375"></stop><stop style="stop-color:#3e68eb;stop-opacity:1;" offset="0.351562"></stop><stop style="stop-color:#3e67eb;stop-opacity:1;" offset="0.359375"></stop><stop style="stop-color:#3d67ea;stop-opacity:1;" offset="0.367187"></stop><stop style="stop-color:#3c67e9;stop-opacity:1;" offset="0.375"></stop><stop style="stop-color:#3b66e8;stop-opacity:1;" offset="0.382812"></stop><stop style="stop-color:#3b66e7;stop-opacity:1;" offset="0.390625"></stop><stop style="stop-color:#3a65e7;stop-opacity:1;" offset="0.398438"></stop><stop style="stop-color:#3965e6;stop-opacity:1;" offset="0.40625"></stop><stop style="stop-color:#3865e5;stop-opacity:1;" offset="0.414062"></stop><stop style="stop-color:#3764e4;stop-opacity:1;" offset="0.421875"></stop><stop style="stop-color:#3764e3;stop-opacity:1;" offset="0.429687"></stop><stop style="stop-color:#3664e3;stop-opacity:1;" offset="0.4375"></stop><stop style="stop-color:#3563e2;stop-opacity:1;" offset="0.445312"></stop><stop style="stop-color:#3463e1;stop-opacity:1;" offset="0.453125"></stop><stop style="stop-color:#3362e0;stop-opacity:1;" offset="0.460938"></stop><stop style="stop-color:#3362e0;stop-opacity:1;" offset="0.46875"></stop><stop style="stop-color:#3262df;stop-opacity:1;" offset="0.476562"></stop><stop style="stop-color:#3161de;stop-opacity:1;" offset="0.484375"></stop><stop style="stop-color:#3061dd;stop-opacity:1;" offset="0.492188"></stop><stop style="stop-color:#2f61dc;stop-opacity:1;" offset="0.5"></stop><stop style="stop-color:#2f60dc;stop-opacity:1;" offset="0.507812"></stop><stop style="stop-color:#2e60db;stop-opacity:1;" offset="0.515625"></stop><stop style="stop-color:#2d5fda;stop-opacity:1;" offset="0.523437"></stop><stop style="stop-color:#2c5fd9;stop-opacity:1;" offset="0.53125"></stop><stop style="stop-color:#2c5fd8;stop-opacity:1;" offset="0.539062"></stop><stop style="stop-color:#2b5ed8;stop-opacity:1;" offset="0.546875"></stop><stop style="stop-color:#2a5ed7;stop-opacity:1;" offset="0.554688"></stop><stop style="stop-color:#295dd6;stop-opacity:1;" offset="0.5625"></stop><stop style="stop-color:#285dd5;stop-opacity:1;" offset="0.570312"></stop><stop style="stop-color:#285dd4;stop-opacity:1;" offset="0.578125"></stop><stop style="stop-color:#275cd4;stop-opacity:1;" offset="0.585938"></stop><stop style="stop-color:#265cd3;stop-opacity:1;" offset="0.59375"></stop><stop style="stop-color:#255cd2;stop-opacity:1;" offset="0.601562"></stop><stop style="stop-color:#245bd1;stop-opacity:1;" offset="0.609375"></stop><stop style="stop-color:#245bd1;stop-opacity:1;" offset="0.617187"></stop><stop style="stop-color:#235ad0;stop-opacity:1;" offset="0.625"></stop><stop style="stop-color:#225acf;stop-opacity:1;" offset="0.632812"></stop><stop style="stop-color:#215ace;stop-opacity:1;" offset="0.640625"></stop><stop style="stop-color:#2059cd;stop-opacity:1;" offset="0.648438"></stop><stop style="stop-color:#2059cd;stop-opacity:1;" offset="0.65625"></stop><stop style="stop-color:#1f59cc;stop-opacity:1;" offset="0.664062"></stop><stop style="stop-color:#1e58cb;stop-opacity:1;" offset="0.671875"></stop><stop style="stop-color:#1d58ca;stop-opacity:1;" offset="0.679687"></stop><stop style="stop-color:#1d57c9;stop-opacity:1;" offset="0.6875"></stop><stop style="stop-color:#1c57c9;stop-opacity:1;" offset="0.695312"></stop><stop style="stop-color:#1b57c8;stop-opacity:1;" offset="0.703125"></stop><stop style="stop-color:#1a56c7;stop-opacity:1;" offset="0.710937"></stop><stop style="stop-color:#1956c6;stop-opacity:1;" offset="0.71875"></stop><stop style="stop-color:#1956c5;stop-opacity:1;" offset="0.726562"></stop><stop style="stop-color:#1855c5;stop-opacity:1;" offset="0.734375"></stop><stop style="stop-color:#1755c4;stop-opacity:1;" offset="0.742187"></stop><stop style="stop-color:#1654c3;stop-opacity:1;" offset="0.75"></stop><stop style="stop-color:#1554c2;stop-opacity:1;" offset="0.757812"></stop><stop style="stop-color:#1554c2;stop-opacity:1;" offset="0.765625"></stop><stop style="stop-color:#1453c1;stop-opacity:1;" offset="0.773438"></stop><stop style="stop-color:#1353c0;stop-opacity:1;" offset="0.78125"></stop><stop style="stop-color:#1253bf;stop-opacity:1;" offset="0.789062"></stop><stop style="stop-color:#1152be;stop-opacity:1;" offset="0.796875"></stop><stop style="stop-color:#1152be;stop-opacity:1;" offset="0.804687"></stop><stop style="stop-color:#1051bd;stop-opacity:1;" offset="0.8125"></stop><stop style="stop-color:#0f51bc;stop-opacity:1;" offset="0.820312"></stop><stop style="stop-color:#0e51bb;stop-opacity:1;" offset="0.828125"></stop><stop style="stop-color:#0e50ba;stop-opacity:1;" offset="0.835937"></stop><stop style="stop-color:#0d50ba;stop-opacity:1;" offset="0.84375"></stop><stop style="stop-color:#0c50b9;stop-opacity:1;" offset="0.851562"></stop><stop style="stop-color:#0b4fb8;stop-opacity:1;" offset="0.859375"></stop><stop style="stop-color:#0a4fb7;stop-opacity:1;" offset="0.867188"></stop><stop style="stop-color:#0a4eb6;stop-opacity:1;" offset="0.875"></stop><stop style="stop-color:#094eb6;stop-opacity:1;" offset="0.882812"></stop><stop style="stop-color:#084eb5;stop-opacity:1;" offset="0.890625"></stop><stop style="stop-color:#074db4;stop-opacity:1;" offset="0.898438"></stop><stop style="stop-color:#064db3;stop-opacity:1;" offset="0.90625"></stop><stop style="stop-color:#064db2;stop-opacity:1;" offset="0.914062"></stop><stop style="stop-color:#054cb2;stop-opacity:1;" offset="0.921875"></stop><stop style="stop-color:#044cb1;stop-opacity:1;" offset="0.929688"></stop><stop style="stop-color:#034bb0;stop-opacity:1;" offset="0.9375"></stop><stop style="stop-color:#024baf;stop-opacity:1;" offset="0.945312"></stop><stop style="stop-color:#024baf;stop-opacity:1;" offset="0.953125"></stop><stop style="stop-color:#014aae;stop-opacity:1;" offset="0.960937"></stop><stop style="stop-color:#004aad;stop-opacity:1;" offset="0.96875"></stop><stop style="stop-color:#004aad;stop-opacity:1;" offset="1"></stop></linearGradient><clipPath id="SvgjsClipPath1024"><path d="M 179 90.472656 L 196 90.472656 L 196 106 L 179 106 Z M 179 90.472656 "></path></clipPath><clipPath id="SvgjsClipPath1023"><path d="M 200 127 L 243 127 L 243 164 L 200 164 Z M 200 127 "></path></clipPath><clipPath id="SvgjsClipPath1022"><path d="M 237.589844 140.519531 C 226.492188 144.058594 204.640625 152.316406 201.882812 163.160156 C 201.882812 163.160156 191.230469 142.582031 233.523438 128.140625 C 236.90625 126.984375 240.582031 128.792969 241.757812 132.167969 C 242.964844 135.632812 241.082031 139.40625 237.589844 140.519531 Z M 237.589844 140.519531 "></path></clipPath><linearGradient x1="152.304001" gradientTransform="matrix(0,0.333667,-0.333667,0,259.752528,94.658688)" y1="50.314946" x2="152.304001" gradientUnits="userSpaceOnUse" y2="205.364966" id="SvgjsLinearGradient1021"><stop style="stop-color:#5271ff;stop-opacity:1;" offset="0"></stop><stop style="stop-color:#5271ff;stop-opacity:1;" offset="0.125"></stop><stop style="stop-color:#5271ff;stop-opacity:1;" offset="0.15625"></stop><stop style="stop-color:#5171fe;stop-opacity:1;" offset="0.164063"></stop><stop style="stop-color:#5170fe;stop-opacity:1;" offset="0.171875"></stop><stop style="stop-color:#5070fd;stop-opacity:1;" offset="0.179688"></stop><stop style="stop-color:#4f70fc;stop-opacity:1;" offset="0.1875"></stop><stop style="stop-color:#4e6ffb;stop-opacity:1;" offset="0.195313"></stop><stop style="stop-color:#4d6ffa;stop-opacity:1;" offset="0.203125"></stop><stop style="stop-color:#4d6efa;stop-opacity:1;" offset="0.210938"></stop><stop style="stop-color:#4c6ef9;stop-opacity:1;" offset="0.21875"></stop><stop style="stop-color:#4b6ef8;stop-opacity:1;" offset="0.226563"></stop><stop style="stop-color:#4a6df7;stop-opacity:1;" offset="0.234375"></stop><stop style="stop-color:#4a6df6;stop-opacity:1;" offset="0.242188"></stop><stop style="stop-color:#496df6;stop-opacity:1;" offset="0.25"></stop><stop style="stop-color:#486cf5;stop-opacity:1;" offset="0.257813"></stop><stop style="stop-color:#476cf4;stop-opacity:1;" offset="0.265625"></stop><stop style="stop-color:#466bf3;stop-opacity:1;" offset="0.273438"></stop><stop style="stop-color:#466bf2;stop-opacity:1;" offset="0.28125"></stop><stop style="stop-color:#456bf2;stop-opacity:1;" offset="0.289063"></stop><stop style="stop-color:#446af1;stop-opacity:1;" offset="0.296875"></stop><stop style="stop-color:#436af0;stop-opacity:1;" offset="0.304688"></stop><stop style="stop-color:#426aef;stop-opacity:1;" offset="0.3125"></stop><stop style="stop-color:#4269ef;stop-opacity:1;" offset="0.320313"></stop><stop style="stop-color:#4169ee;stop-opacity:1;" offset="0.328125"></stop><stop style="stop-color:#4068ed;stop-opacity:1;" offset="0.335938"></stop><stop style="stop-color:#3f68ec;stop-opacity:1;" offset="0.34375"></stop><stop style="stop-color:#3e68eb;stop-opacity:1;" offset="0.351563"></stop><stop style="stop-color:#3e67eb;stop-opacity:1;" offset="0.359375"></stop><stop style="stop-color:#3d67ea;stop-opacity:1;" offset="0.367188"></stop><stop style="stop-color:#3c67e9;stop-opacity:1;" offset="0.375"></stop><stop style="stop-color:#3b66e8;stop-opacity:1;" offset="0.382812"></stop><stop style="stop-color:#3b66e7;stop-opacity:1;" offset="0.390625"></stop><stop style="stop-color:#3a65e7;stop-opacity:1;" offset="0.398438"></stop><stop style="stop-color:#3965e6;stop-opacity:1;" offset="0.40625"></stop><stop style="stop-color:#3865e5;stop-opacity:1;" offset="0.414063"></stop><stop style="stop-color:#3764e4;stop-opacity:1;" offset="0.421875"></stop><stop style="stop-color:#3764e3;stop-opacity:1;" offset="0.429688"></stop><stop style="stop-color:#3664e3;stop-opacity:1;" offset="0.4375"></stop><stop style="stop-color:#3563e2;stop-opacity:1;" offset="0.445313"></stop><stop style="stop-color:#3463e1;stop-opacity:1;" offset="0.453125"></stop><stop style="stop-color:#3362e0;stop-opacity:1;" offset="0.460938"></stop><stop style="stop-color:#3362e0;stop-opacity:1;" offset="0.46875"></stop><stop style="stop-color:#3262df;stop-opacity:1;" offset="0.476562"></stop><stop style="stop-color:#3161de;stop-opacity:1;" offset="0.484375"></stop><stop style="stop-color:#3061dd;stop-opacity:1;" offset="0.492188"></stop><stop style="stop-color:#2f61dc;stop-opacity:1;" offset="0.5"></stop><stop style="stop-color:#2f60dc;stop-opacity:1;" offset="0.507812"></stop><stop style="stop-color:#2e60db;stop-opacity:1;" offset="0.515625"></stop><stop style="stop-color:#2d5fda;stop-opacity:1;" offset="0.523438"></stop><stop style="stop-color:#2c5fd9;stop-opacity:1;" offset="0.53125"></stop><stop style="stop-color:#2c5fd8;stop-opacity:1;" offset="0.539062"></stop><stop style="stop-color:#2b5ed8;stop-opacity:1;" offset="0.546875"></stop><stop style="stop-color:#2a5ed7;stop-opacity:1;" offset="0.554688"></stop><stop style="stop-color:#295ed6;stop-opacity:1;" offset="0.5625"></stop><stop style="stop-color:#285dd5;stop-opacity:1;" offset="0.570312"></stop><stop style="stop-color:#285dd4;stop-opacity:1;" offset="0.578125"></stop><stop style="stop-color:#275cd4;stop-opacity:1;" offset="0.585938"></stop><stop style="stop-color:#265cd3;stop-opacity:1;" offset="0.59375"></stop><stop style="stop-color:#255cd2;stop-opacity:1;" offset="0.601562"></stop><stop style="stop-color:#245bd1;stop-opacity:1;" offset="0.609375"></stop><stop style="stop-color:#245bd1;stop-opacity:1;" offset="0.617187"></stop><stop style="stop-color:#235bd0;stop-opacity:1;" offset="0.625"></stop><stop style="stop-color:#225acf;stop-opacity:1;" offset="0.632812"></stop><stop style="stop-color:#215ace;stop-opacity:1;" offset="0.640625"></stop><stop style="stop-color:#2059cd;stop-opacity:1;" offset="0.648438"></stop><stop style="stop-color:#2059cd;stop-opacity:1;" offset="0.65625"></stop><stop style="stop-color:#1f59cc;stop-opacity:1;" offset="0.664062"></stop><stop style="stop-color:#1e58cb;stop-opacity:1;" offset="0.671875"></stop><stop style="stop-color:#1d58ca;stop-opacity:1;" offset="0.679687"></stop><stop style="stop-color:#1d57c9;stop-opacity:1;" offset="0.6875"></stop><stop style="stop-color:#1c57c9;stop-opacity:1;" offset="0.695312"></stop><stop style="stop-color:#1b57c8;stop-opacity:1;" offset="0.703125"></stop><stop style="stop-color:#1a56c7;stop-opacity:1;" offset="0.710938"></stop><stop style="stop-color:#1956c6;stop-opacity:1;" offset="0.71875"></stop><stop style="stop-color:#1956c5;stop-opacity:1;" offset="0.726562"></stop><stop style="stop-color:#1855c5;stop-opacity:1;" offset="0.734375"></stop><stop style="stop-color:#1755c4;stop-opacity:1;" offset="0.742188"></stop><stop style="stop-color:#1654c3;stop-opacity:1;" offset="0.75"></stop><stop style="stop-color:#1554c2;stop-opacity:1;" offset="0.757812"></stop><stop style="stop-color:#1554c2;stop-opacity:1;" offset="0.765625"></stop><stop style="stop-color:#1453c1;stop-opacity:1;" offset="0.773438"></stop><stop style="stop-color:#1353c0;stop-opacity:1;" offset="0.78125"></stop><stop style="stop-color:#1253bf;stop-opacity:1;" offset="0.789062"></stop><stop style="stop-color:#1152be;stop-opacity:1;" offset="0.796875"></stop><stop style="stop-color:#1152be;stop-opacity:1;" offset="0.804688"></stop><stop style="stop-color:#1051bd;stop-opacity:1;" offset="0.8125"></stop><stop style="stop-color:#0f51bc;stop-opacity:1;" offset="0.820313"></stop><stop style="stop-color:#0e51bb;stop-opacity:1;" offset="0.828125"></stop><stop style="stop-color:#0e50ba;stop-opacity:1;" offset="0.835938"></stop><stop style="stop-color:#0d50ba;stop-opacity:1;" offset="0.84375"></stop><stop style="stop-color:#0c50b9;stop-opacity:1;" offset="0.851562"></stop><stop style="stop-color:#0b4fb8;stop-opacity:1;" offset="0.859375"></stop><stop style="stop-color:#0a4fb7;stop-opacity:1;" offset="0.867188"></stop><stop style="stop-color:#0a4eb6;stop-opacity:1;" offset="0.875"></stop><stop style="stop-color:#094eb6;stop-opacity:1;" offset="0.882813"></stop><stop style="stop-color:#084eb5;stop-opacity:1;" offset="0.890625"></stop><stop style="stop-color:#074db4;stop-opacity:1;" offset="0.898438"></stop><stop style="stop-color:#064db3;stop-opacity:1;" offset="0.90625"></stop><stop style="stop-color:#064db3;stop-opacity:1;" offset="0.914062"></stop><stop style="stop-color:#054cb2;stop-opacity:1;" offset="0.921875"></stop><stop style="stop-color:#044cb1;stop-opacity:1;" offset="0.929688"></stop><stop style="stop-color:#034bb0;stop-opacity:1;" offset="0.9375"></stop><stop style="stop-color:#024baf;stop-opacity:1;" offset="0.945312"></stop><stop style="stop-color:#024baf;stop-opacity:1;" offset="0.953125"></stop><stop style="stop-color:#014aae;stop-opacity:1;" offset="0.960937"></stop><stop style="stop-color:#004aad;stop-opacity:1;" offset="0.96875"></stop><stop style="stop-color:#004aad;stop-opacity:1;" offset="1"></stop></linearGradient><clipPath id="SvgjsClipPath1020"><path d="M 238 149 L 254.082031 149 L 254.082031 165 L 238 165 Z M 238 149 "></path></clipPath></defs><g id="SvgjsG1019"><g clip-rule="nonzero" clip-path="url(#6f521d2d5b)"><g clip-rule="nonzero" clip-path="url(#e5927eb78c)"><path style=" stroke:none;fill-rule:nonzero;fill:url(#ef48cef302);" d="M 217.566406 212.839844 L 217.566406 161.101562 L 181.394531 161.101562 L 181.394531 212.839844 Z M 217.566406 212.839844 "></path></g></g><path style=" stroke:none;fill-rule:nonzero;fill:#5271ff;fill-opacity:1;" d="M 170.644531 207.464844 C 174.183594 196.367188 182.441406 174.515625 193.285156 171.757812 C 193.285156 171.757812 172.707031 161.101562 158.265625 203.398438 C 157.113281 206.777344 158.921875 210.457031 162.292969 211.632812 C 165.757812 212.839844 169.53125 210.957031 170.644531 207.464844 Z M 170.644531 207.464844 "></path><g clip-rule="nonzero" clip-path="url(#595c84473e)"><path style=" stroke:none;fill-rule:nonzero;fill:#5271ff;fill-opacity:1;" d="M 195.050781 216.246094 C 195.050781 216.75 195 217.253906 194.902344 217.75 C 194.800781 218.246094 194.65625 218.726562 194.460938 219.195312 C 194.269531 219.664062 194.03125 220.109375 193.75 220.527344 C 193.46875 220.949219 193.148438 221.339844 192.792969 221.699219 C 192.433594 222.054688 192.042969 222.375 191.621094 222.65625 C 191.203125 222.9375 190.757812 223.175781 190.289062 223.371094 C 189.820312 223.5625 189.339844 223.710938 188.84375 223.808594 C 188.347656 223.90625 187.84375 223.957031 187.339844 223.957031 C 186.832031 223.957031 186.332031 223.90625 185.835938 223.808594 C 185.335938 223.710938 184.855469 223.5625 184.386719 223.371094 C 183.917969 223.175781 183.476562 222.9375 183.054688 222.65625 C 182.632812 222.375 182.242188 222.054688 181.886719 221.699219 C 181.527344 221.339844 181.207031 220.949219 180.925781 220.527344 C 180.644531 220.109375 180.410156 219.664062 180.214844 219.195312 C 180.019531 218.726562 179.875 218.246094 179.777344 217.75 C 179.675781 217.253906 179.628906 216.75 179.628906 216.246094 C 179.628906 215.738281 179.675781 215.238281 179.777344 214.742188 C 179.875 214.246094 180.019531 213.761719 180.214844 213.292969 C 180.410156 212.828125 180.644531 212.382812 180.925781 211.960938 C 181.207031 211.539062 181.527344 211.152344 181.886719 210.792969 C 182.242188 210.433594 182.632812 210.113281 183.054688 209.832031 C 183.476562 209.550781 183.917969 209.316406 184.386719 209.121094 C 184.855469 208.925781 185.335938 208.78125 185.835938 208.683594 C 186.332031 208.582031 186.832031 208.535156 187.339844 208.535156 C 187.84375 208.535156 188.347656 208.582031 188.84375 208.683594 C 189.339844 208.78125 189.820312 208.925781 190.289062 209.121094 C 190.757812 209.316406 191.203125 209.550781 191.621094 209.832031 C 192.042969 210.113281 192.433594 210.433594 192.792969 210.792969 C 193.148438 211.152344 193.46875 211.539062 193.75 211.960938 C 194.03125 212.382812 194.269531 212.828125 194.460938 213.292969 C 194.65625 213.761719 194.800781 214.246094 194.902344 214.742188 C 195 215.238281 195.050781 215.738281 195.050781 216.246094 Z M 195.050781 216.246094 "></path></g><g clip-rule="nonzero" clip-path="url(#bb0087a6bd)"><g clip-rule="nonzero" clip-path="url(#82b4969442)"><path style=" stroke:none;fill-rule:nonzero;fill:url(#090b519060);" d="M 131.714844 187.441406 L 183.453125 187.441406 L 183.453125 151.265625 L 131.714844 151.265625 Z M 131.714844 187.441406 "></path></g></g><path style=" stroke:none;fill-rule:nonzero;fill:#5271ff;fill-opacity:1;" d="M 137.089844 140.519531 C 148.191406 144.058594 170.039062 152.316406 172.796875 163.160156 C 172.796875 163.160156 183.453125 142.582031 141.15625 128.140625 C 137.777344 126.984375 134.097656 128.792969 132.921875 132.167969 C 131.714844 135.632812 133.597656 139.40625 137.089844 140.519531 Z M 137.089844 140.519531 "></path><g clip-rule="nonzero" clip-path="url(#262285c8d8)"><path style=" stroke:none;fill-rule:nonzero;fill:#5271ff;fill-opacity:1;" d="M 136.019531 157.210938 C 136.019531 157.71875 135.972656 158.21875 135.871094 158.71875 C 135.773438 159.214844 135.628906 159.695312 135.433594 160.164062 C 135.238281 160.632812 135.003906 161.074219 134.722656 161.496094 C 134.441406 161.917969 134.121094 162.308594 133.761719 162.664062 C 133.402344 163.023438 133.015625 163.34375 132.59375 163.625 C 132.171875 163.90625 131.726562 164.144531 131.261719 164.335938 C 130.792969 164.53125 130.308594 164.675781 129.8125 164.777344 C 129.316406 164.875 128.816406 164.925781 128.308594 164.925781 C 127.804688 164.925781 127.300781 164.875 126.804688 164.777344 C 126.308594 164.675781 125.828125 164.53125 125.359375 164.335938 C 124.890625 164.144531 124.445312 163.90625 124.027344 163.625 C 123.605469 163.34375 123.214844 163.023438 122.855469 162.664062 C 122.5 162.308594 122.179688 161.917969 121.898438 161.496094 C 121.617188 161.074219 121.378906 160.632812 121.183594 160.164062 C 120.992188 159.695312 120.84375 159.214844 120.746094 158.71875 C 120.648438 158.21875 120.597656 157.71875 120.597656 157.210938 C 120.597656 156.707031 120.648438 156.203125 120.746094 155.707031 C 120.84375 155.210938 120.992188 154.730469 121.183594 154.261719 C 121.378906 153.792969 121.617188 153.351562 121.898438 152.929688 C 122.179688 152.507812 122.5 152.117188 122.855469 151.761719 C 123.214844 151.402344 123.605469 151.082031 124.027344 150.800781 C 124.445312 150.519531 124.890625 150.28125 125.359375 150.089844 C 125.828125 149.894531 126.308594 149.75 126.804688 149.648438 C 127.300781 149.550781 127.804688 149.5 128.308594 149.5 C 128.816406 149.5 129.316406 149.550781 129.8125 149.648438 C 130.308594 149.75 130.792969 149.894531 131.261719 150.089844 C 131.726562 150.28125 132.171875 150.519531 132.59375 150.800781 C 133.015625 151.082031 133.402344 151.402344 133.761719 151.761719 C 134.121094 152.117188 134.441406 152.507812 134.722656 152.929688 C 135.003906 153.351562 135.238281 153.792969 135.433594 154.261719 C 135.628906 154.730469 135.773438 155.210938 135.871094 155.707031 C 135.972656 156.203125 136.019531 156.707031 136.019531 157.210938 Z M 136.019531 157.210938 "></path></g><g clip-rule="nonzero" clip-path="url(#21bbda3f67)"><g clip-rule="nonzero" clip-path="url(#fc0189727a)"><path style=" stroke:none;fill-rule:nonzero;fill:url(#d8b3b85b2c);" d="M 157.113281 101.585938 L 157.113281 153.324219 L 193.285156 153.324219 L 193.285156 101.585938 Z M 157.113281 101.585938 "></path></g></g><path style=" stroke:none;fill-rule:nonzero;fill:#5271ff;fill-opacity:1;" d="M 204.03125 106.964844 C 200.492188 118.0625 192.238281 139.914062 181.394531 142.671875 C 181.394531 142.671875 201.96875 153.324219 216.410156 111.03125 C 217.566406 107.648438 215.757812 103.972656 212.382812 102.796875 C 208.921875 101.585938 205.144531 103.472656 204.03125 106.964844 Z M 204.03125 106.964844 "></path><g clip-rule="nonzero" clip-path="url(#ed16474f53)"><path style=" stroke:none;fill-rule:nonzero;fill:#5271ff;fill-opacity:1;" d="M 195.050781 98.183594 C 195.050781 98.691406 195 99.191406 194.902344 99.6875 C 194.800781 100.183594 194.65625 100.667969 194.460938 101.132812 C 194.269531 101.601562 194.03125 102.046875 193.75 102.46875 C 193.46875 102.890625 193.148438 103.277344 192.792969 103.636719 C 192.433594 103.996094 192.042969 104.3125 191.621094 104.59375 C 191.203125 104.875 190.757812 105.113281 190.289062 105.308594 C 189.820312 105.5 189.339844 105.648438 188.84375 105.746094 C 188.347656 105.84375 187.84375 105.894531 187.339844 105.894531 C 186.832031 105.894531 186.332031 105.84375 185.835938 105.746094 C 185.335938 105.648438 184.855469 105.5 184.386719 105.308594 C 183.917969 105.113281 183.476562 104.875 183.054688 104.59375 C 182.632812 104.3125 182.242188 103.996094 181.886719 103.636719 C 181.527344 103.277344 181.207031 102.890625 180.925781 102.46875 C 180.644531 102.046875 180.410156 101.601562 180.214844 101.132812 C 180.019531 100.667969 179.875 100.183594 179.777344 99.6875 C 179.675781 99.191406 179.628906 98.691406 179.628906 98.183594 C 179.628906 97.675781 179.675781 97.175781 179.777344 96.679688 C 179.875 96.183594 180.019531 95.699219 180.214844 95.234375 C 180.410156 94.765625 180.644531 94.320312 180.925781 93.898438 C 181.207031 93.480469 181.527344 93.089844 181.886719 92.730469 C 182.242188 92.375 182.632812 92.054688 183.054688 91.773438 C 183.476562 91.492188 183.917969 91.253906 184.386719 91.058594 C 184.855469 90.867188 185.335938 90.71875 185.835938 90.621094 C 186.332031 90.523438 186.832031 90.472656 187.339844 90.472656 C 187.84375 90.472656 188.347656 90.523438 188.84375 90.621094 C 189.339844 90.71875 189.820312 90.867188 190.289062 91.058594 C 190.757812 91.253906 191.203125 91.492188 191.621094 91.773438 C 192.042969 92.054688 192.433594 92.375 192.792969 92.730469 C 193.148438 93.089844 193.46875 93.480469 193.75 93.898438 C 194.03125 94.320312 194.269531 94.765625 194.460938 95.234375 C 194.65625 95.699219 194.800781 96.183594 194.902344 96.679688 C 195 97.175781 195.050781 97.675781 195.050781 98.183594 Z M 195.050781 98.183594 "></path></g><g clip-rule="nonzero" clip-path="url(#7433205ca1)"><g clip-rule="nonzero" clip-path="url(#146c24f4e7)"><path style=" stroke:none;fill-rule:nonzero;fill:url(#a69143c119);" d="M 242.964844 126.984375 L 191.230469 126.984375 L 191.230469 163.160156 L 242.964844 163.160156 Z M 242.964844 126.984375 "></path></g></g><path style=" stroke:none;fill-rule:nonzero;fill:#5271ff;fill-opacity:1;" d="M 237.589844 173.90625 C 226.492188 170.367188 204.640625 162.109375 201.882812 151.265625 C 201.882812 151.265625 191.230469 171.84375 233.523438 186.285156 C 236.90625 187.441406 240.582031 185.632812 241.757812 182.257812 C 242.964844 178.792969 241.082031 175.019531 237.589844 173.90625 Z M 237.589844 173.90625 "></path><g clip-rule="nonzero" clip-path="url(#e8d888c6f2)"><path style=" stroke:none;fill-rule:nonzero;fill:#5271ff;fill-opacity:1;" d="M 254.078125 157.210938 C 254.078125 157.71875 254.027344 158.21875 253.929688 158.71875 C 253.832031 159.214844 253.683594 159.695312 253.492188 160.164062 C 253.296875 160.632812 253.058594 161.074219 252.777344 161.496094 C 252.496094 161.917969 252.179688 162.308594 251.820312 162.664062 C 251.460938 163.023438 251.074219 163.34375 250.652344 163.625 C 250.230469 163.90625 249.785156 164.144531 249.320312 164.335938 C 248.851562 164.53125 248.367188 164.675781 247.871094 164.777344 C 247.375 164.875 246.875 164.925781 246.367188 164.925781 C 245.859375 164.925781 245.359375 164.875 244.863281 164.777344 C 244.367188 164.675781 243.882812 164.53125 243.417969 164.335938 C 242.949219 164.144531 242.503906 163.90625 242.082031 163.625 C 241.664062 163.34375 241.273438 163.023438 240.914062 162.664062 C 240.558594 162.308594 240.238281 161.917969 239.957031 161.496094 C 239.675781 161.074219 239.4375 160.632812 239.242188 160.164062 C 239.050781 159.695312 238.902344 159.214844 238.804688 158.71875 C 238.707031 158.21875 238.65625 157.71875 238.65625 157.210938 C 238.65625 156.707031 238.707031 156.203125 238.804688 155.707031 C 238.902344 155.210938 239.050781 154.730469 239.242188 154.261719 C 239.4375 153.792969 239.675781 153.351562 239.957031 152.929688 C 240.238281 152.507812 240.558594 152.117188 240.914062 151.761719 C 241.273438 151.402344 241.664062 151.082031 242.082031 150.800781 C 242.503906 150.519531 242.949219 150.28125 243.417969 150.089844 C 243.882812 149.894531 244.367188 149.75 244.863281 149.648438 C 245.359375 149.550781 245.859375 149.5 246.367188 149.5 C 246.875 149.5 247.375 149.550781 247.871094 149.648438 C 248.367188 149.75 248.851562 149.894531 249.320312 150.089844 C 249.785156 150.28125 250.230469 150.519531 250.652344 150.800781 C 251.074219 151.082031 251.460938 151.402344 251.820312 151.761719 C 252.179688 152.117188 252.496094 152.507812 252.777344 152.929688 C 253.058594 153.351562 253.296875 153.792969 253.492188 154.261719 C 253.683594 154.730469 253.832031 155.210938 253.929688 155.707031 C 254.027344 156.203125 254.078125 156.707031 254.078125 157.210938 Z M 254.078125 157.210938 "></path></g><g style="fill:#5271ff;fill-opacity:1;"><g transform="translate(144.845653, 262.624128)"><path style="stroke:none" d="M 9.296875 0.265625 C 7.796875 0.265625 6.382812 0.0664062 5.0625 -0.328125 C 3.738281 -0.722656 2.660156 -1.257812 1.828125 -1.9375 C 1.378906 -2.269531 1.15625 -2.738281 1.15625 -3.34375 C 1.15625 -3.75 1.273438 -4.097656 1.515625 -4.390625 C 1.765625 -4.691406 2.050781 -4.84375 2.375 -4.84375 C 2.726562 -4.84375 3.128906 -4.707031 3.578125 -4.4375 C 4.398438 -3.84375 5.265625 -3.410156 6.171875 -3.140625 C 7.085938 -2.867188 8.097656 -2.734375 9.203125 -2.734375 C 10.617188 -2.734375 11.703125 -2.976562 12.453125 -3.46875 C 13.210938 -3.957031 13.59375 -4.675781 13.59375 -5.625 C 13.59375 -6.363281 13.238281 -6.929688 12.53125 -7.328125 C 11.820312 -7.722656 10.644531 -8.109375 9 -8.484375 C 7.289062 -8.847656 5.90625 -9.269531 4.84375 -9.75 C 3.78125 -10.238281 2.976562 -10.859375 2.4375 -11.609375 C 1.894531 -12.367188 1.625 -13.328125 1.625 -14.484375 C 1.625 -15.679688 1.960938 -16.753906 2.640625 -17.703125 C 3.316406 -18.648438 4.257812 -19.390625 5.46875 -19.921875 C 6.675781 -20.460938 8.035156 -20.734375 9.546875 -20.734375 C 12.316406 -20.734375 14.570312 -19.992188 16.3125 -18.515625 C 16.5625 -18.304688 16.738281 -18.097656 16.84375 -17.890625 C 16.957031 -17.691406 17.015625 -17.4375 17.015625 -17.125 C 17.015625 -16.71875 16.890625 -16.363281 16.640625 -16.0625 C 16.398438 -15.769531 16.117188 -15.625 15.796875 -15.625 C 15.597656 -15.625 15.414062 -15.648438 15.25 -15.703125 C 15.09375 -15.765625 14.878906 -15.875 14.609375 -16.03125 C 13.804688 -16.601562 13.03125 -17.03125 12.28125 -17.3125 C 11.539062 -17.59375 10.628906 -17.734375 9.546875 -17.734375 C 8.234375 -17.734375 7.191406 -17.46875 6.421875 -16.9375 C 5.660156 -16.40625 5.28125 -15.664062 5.28125 -14.71875 C 5.28125 -13.925781 5.617188 -13.316406 6.296875 -12.890625 C 6.972656 -12.460938 8.125 -12.066406 9.75 -11.703125 C 11.476562 -11.316406 12.878906 -10.882812 13.953125 -10.40625 C 15.023438 -9.9375 15.847656 -9.332031 16.421875 -8.59375 C 16.992188 -7.851562 17.28125 -6.929688 17.28125 -5.828125 C 17.28125 -4.628906 16.941406 -3.570312 16.265625 -2.65625 C 15.597656 -1.738281 14.660156 -1.019531 13.453125 -0.5 C 12.242188 0.0078125 10.859375 0.265625 9.296875 0.265625 Z M 9.296875 0.265625 "></path></g></g><g style="fill:#5271ff;fill-opacity:1;"><g transform="translate(164.837976, 262.624128)"><path style="stroke:none" d="M 4.0625 0.171875 C 3.5 0.171875 3.046875 0.00390625 2.703125 -0.328125 C 2.367188 -0.671875 2.203125 -1.132812 2.203125 -1.71875 L 2.203125 -18.703125 C 2.203125 -19.253906 2.363281 -19.6875 2.6875 -20 C 3.007812 -20.3125 3.445312 -20.46875 4 -20.46875 L 11.140625 -20.46875 C 13.328125 -20.46875 15.03125 -19.921875 16.25 -18.828125 C 17.476562 -17.734375 18.09375 -16.195312 18.09375 -14.21875 C 18.09375 -12.25 17.476562 -10.710938 16.25 -9.609375 C 15.03125 -8.503906 13.328125 -7.953125 11.140625 -7.953125 L 5.953125 -7.953125 L 5.953125 -1.71875 C 5.953125 -1.132812 5.78125 -0.671875 5.4375 -0.328125 C 5.101562 0.00390625 4.644531 0.171875 4.0625 0.171875 Z M 10.6875 -10.828125 C 13.257812 -10.828125 14.546875 -11.953125 14.546875 -14.203125 C 14.546875 -16.441406 13.257812 -17.5625 10.6875 -17.5625 L 5.953125 -17.5625 L 5.953125 -10.828125 Z M 10.6875 -10.828125 "></path></g></g><g style="fill:#5271ff;fill-opacity:1;"><g transform="translate(185.46864, 262.624128)"><path style="stroke:none" d="M 20.75 -2.234375 C 20.875 -1.984375 20.9375 -1.734375 20.9375 -1.484375 C 20.9375 -1.035156 20.753906 -0.65625 20.390625 -0.34375 C 20.035156 -0.0390625 19.625 0.109375 19.15625 0.109375 C 18.851562 0.109375 18.566406 0.03125 18.296875 -0.125 C 18.023438 -0.289062 17.8125 -0.550781 17.65625 -0.90625 L 15.90625 -4.796875 L 5.6875 -4.796875 L 3.953125 -0.90625 C 3.796875 -0.550781 3.582031 -0.289062 3.3125 -0.125 C 3.039062 0.03125 2.738281 0.109375 2.40625 0.109375 C 1.957031 0.109375 1.550781 -0.0390625 1.1875 -0.34375 C 0.820312 -0.65625 0.640625 -1.035156 0.640625 -1.484375 C 0.640625 -1.734375 0.695312 -1.984375 0.8125 -2.234375 L 8.828125 -19.453125 C 9.003906 -19.835938 9.269531 -20.128906 9.625 -20.328125 C 9.976562 -20.535156 10.359375 -20.640625 10.765625 -20.640625 C 11.171875 -20.640625 11.550781 -20.535156 11.90625 -20.328125 C 12.269531 -20.128906 12.539062 -19.835938 12.71875 -19.453125 Z M 6.96875 -7.6875 L 14.625 -7.6875 L 10.796875 -16.3125 Z M 6.96875 -7.6875 "></path></g></g><g style="fill:#5271ff;fill-opacity:1;"><g transform="translate(208.478587, 262.624128)"><path style="stroke:none" d="M 17.703125 -20.609375 C 18.242188 -20.609375 18.675781 -20.4375 19 -20.09375 C 19.320312 -19.757812 19.484375 -19.3125 19.484375 -18.75 L 19.484375 -1.71875 C 19.484375 -1.15625 19.316406 -0.695312 18.984375 -0.34375 C 18.660156 0 18.234375 0.171875 17.703125 0.171875 C 17.085938 0.171875 16.613281 -0.0507812 16.28125 -0.5 L 5.6875 -14.28125 L 5.6875 -1.71875 C 5.6875 -1.15625 5.53125 -0.695312 5.21875 -0.34375 C 4.914062 0 4.492188 0.171875 3.953125 0.171875 C 3.410156 0.171875 2.984375 0 2.671875 -0.34375 C 2.359375 -0.695312 2.203125 -1.15625 2.203125 -1.71875 L 2.203125 -18.75 C 2.203125 -19.3125 2.363281 -19.757812 2.6875 -20.09375 C 3.019531 -20.4375 3.457031 -20.609375 4 -20.609375 C 4.601562 -20.609375 5.070312 -20.382812 5.40625 -19.9375 L 15.96875 -6.21875 L 15.96875 -18.75 C 15.96875 -19.3125 16.125 -19.757812 16.4375 -20.09375 C 16.757812 -20.4375 17.179688 -20.609375 17.703125 -20.609375 Z M 17.703125 -20.609375 "></path></g></g><g style="fill:#2f243a;fill-opacity:1;"><g transform="translate(87.140744, 285.556884)"><path style="stroke:none" d="M 3.71875 0.109375 C 3.125 0.109375 2.5625 0.03125 2.03125 -0.125 C 1.5 -0.289062 1.066406 -0.507812 0.734375 -0.78125 C 0.554688 -0.914062 0.46875 -1.101562 0.46875 -1.34375 C 0.46875 -1.5 0.515625 -1.632812 0.609375 -1.75 C 0.703125 -1.875 0.816406 -1.9375 0.953125 -1.9375 C 1.085938 -1.9375 1.25 -1.882812 1.4375 -1.78125 C 1.769531 -1.539062 2.117188 -1.363281 2.484375 -1.25 C 2.847656 -1.144531 3.25 -1.09375 3.6875 -1.09375 C 4.257812 -1.09375 4.695312 -1.191406 5 -1.390625 C 5.300781 -1.585938 5.453125 -1.878906 5.453125 -2.265625 C 5.453125 -2.554688 5.304688 -2.78125 5.015625 -2.9375 C 4.734375 -3.09375 4.265625 -3.25 3.609375 -3.40625 C 2.921875 -3.550781 2.363281 -3.71875 1.9375 -3.90625 C 1.507812 -4.101562 1.1875 -4.351562 0.96875 -4.65625 C 0.757812 -4.957031 0.65625 -5.34375 0.65625 -5.8125 C 0.65625 -6.289062 0.789062 -6.71875 1.0625 -7.09375 C 1.332031 -7.476562 1.707031 -7.773438 2.1875 -7.984375 C 2.675781 -8.203125 3.222656 -8.3125 3.828125 -8.3125 C 4.941406 -8.3125 5.847656 -8.015625 6.546875 -7.421875 C 6.640625 -7.335938 6.707031 -7.253906 6.75 -7.171875 C 6.800781 -7.085938 6.828125 -6.988281 6.828125 -6.875 C 6.828125 -6.707031 6.773438 -6.5625 6.671875 -6.4375 C 6.578125 -6.320312 6.460938 -6.265625 6.328125 -6.265625 C 6.253906 -6.265625 6.179688 -6.273438 6.109375 -6.296875 C 6.046875 -6.316406 5.960938 -6.359375 5.859375 -6.421875 C 5.535156 -6.660156 5.222656 -6.832031 4.921875 -6.9375 C 4.628906 -7.050781 4.265625 -7.109375 3.828125 -7.109375 C 3.296875 -7.109375 2.878906 -7 2.578125 -6.78125 C 2.273438 -6.570312 2.125 -6.28125 2.125 -5.90625 C 2.125 -5.582031 2.257812 -5.332031 2.53125 -5.15625 C 2.800781 -4.988281 3.257812 -4.832031 3.90625 -4.6875 C 4.601562 -4.53125 5.164062 -4.359375 5.59375 -4.171875 C 6.019531 -3.984375 6.347656 -3.738281 6.578125 -3.4375 C 6.804688 -3.144531 6.921875 -2.78125 6.921875 -2.34375 C 6.921875 -1.863281 6.785156 -1.4375 6.515625 -1.0625 C 6.253906 -0.695312 5.878906 -0.410156 5.390625 -0.203125 C 4.910156 0.00390625 4.351562 0.109375 3.71875 0.109375 Z M 3.71875 0.109375 "></path></g></g><g style="fill:#2f243a;fill-opacity:1;"><g transform="translate(97.685856, 285.556884)"><path style="stroke:none" d="M 3.578125 0.0625 C 3.335938 0.0625 3.148438 -0.00390625 3.015625 -0.140625 C 2.878906 -0.273438 2.8125 -0.457031 2.8125 -0.6875 L 2.8125 -6.96875 L 0.703125 -6.96875 C 0.234375 -6.96875 0 -7.175781 0 -7.59375 C 0 -8 0.234375 -8.203125 0.703125 -8.203125 L 6.4375 -8.203125 C 6.90625 -8.203125 7.140625 -8 7.140625 -7.59375 C 7.140625 -7.175781 6.90625 -6.96875 6.4375 -6.96875 L 4.3125 -6.96875 L 4.3125 -0.6875 C 4.3125 -0.457031 4.242188 -0.273438 4.109375 -0.140625 C 3.972656 -0.00390625 3.796875 0.0625 3.578125 0.0625 Z M 3.578125 0.0625 "></path></g></g><g style="fill:#2f243a;fill-opacity:1;"><g transform="translate(107.940059, 285.556884)"><path style="stroke:none" d="M 4.265625 0.109375 C 3.140625 0.109375 2.285156 -0.179688 1.703125 -0.765625 C 1.128906 -1.347656 0.84375 -2.195312 0.84375 -3.3125 L 0.84375 -7.515625 C 0.84375 -7.742188 0.90625 -7.925781 1.03125 -8.0625 C 1.164062 -8.195312 1.347656 -8.265625 1.578125 -8.265625 C 1.796875 -8.265625 1.972656 -8.195312 2.109375 -8.0625 C 2.242188 -7.925781 2.3125 -7.742188 2.3125 -7.515625 L 2.3125 -3.234375 C 2.3125 -2.523438 2.476562 -1.988281 2.8125 -1.625 C 3.144531 -1.269531 3.628906 -1.09375 4.265625 -1.09375 C 4.910156 -1.09375 5.398438 -1.273438 5.734375 -1.640625 C 6.066406 -2.003906 6.234375 -2.535156 6.234375 -3.234375 L 6.234375 -7.515625 C 6.234375 -7.742188 6.296875 -7.925781 6.421875 -8.0625 C 6.554688 -8.195312 6.738281 -8.265625 6.96875 -8.265625 C 7.1875 -8.265625 7.359375 -8.195312 7.484375 -8.0625 C 7.617188 -7.925781 7.6875 -7.742188 7.6875 -7.515625 L 7.6875 -3.3125 C 7.6875 -2.207031 7.394531 -1.359375 6.8125 -0.765625 C 6.238281 -0.179688 5.390625 0.109375 4.265625 0.109375 Z M 4.265625 0.109375 "></path></g></g><g style="fill:#2f243a;fill-opacity:1;"><g transform="translate(119.590658, 285.556884)"><path style="stroke:none" d="M 1.609375 0 C 1.378906 0 1.203125 -0.0625 1.078125 -0.1875 C 0.953125 -0.3125 0.890625 -0.484375 0.890625 -0.703125 L 0.890625 -7.5 C 0.890625 -7.71875 0.953125 -7.890625 1.078125 -8.015625 C 1.203125 -8.140625 1.378906 -8.203125 1.609375 -8.203125 L 3.90625 -8.203125 C 5.25 -8.203125 6.289062 -7.84375 7.03125 -7.125 C 7.769531 -6.40625 8.140625 -5.398438 8.140625 -4.109375 C 8.140625 -2.804688 7.769531 -1.796875 7.03125 -1.078125 C 6.289062 -0.359375 5.25 0 3.90625 0 Z M 3.8125 -1.21875 C 5.695312 -1.21875 6.640625 -2.179688 6.640625 -4.109375 C 6.640625 -6.023438 5.695312 -6.984375 3.8125 -6.984375 L 2.390625 -6.984375 L 2.390625 -1.21875 Z M 3.8125 -1.21875 "></path></g></g><g style="fill:#2f243a;fill-opacity:1;"><g transform="translate(131.485624, 285.556884)"><path style="stroke:none" d="M 1.609375 0 C 1.378906 0 1.203125 -0.0625 1.078125 -0.1875 C 0.953125 -0.3125 0.890625 -0.484375 0.890625 -0.703125 L 0.890625 -7.5 C 0.890625 -7.71875 0.953125 -7.890625 1.078125 -8.015625 C 1.203125 -8.140625 1.378906 -8.203125 1.609375 -8.203125 L 5.8125 -8.203125 C 6.03125 -8.203125 6.203125 -8.148438 6.328125 -8.046875 C 6.453125 -7.953125 6.515625 -7.8125 6.515625 -7.625 C 6.515625 -7.425781 6.453125 -7.273438 6.328125 -7.171875 C 6.203125 -7.066406 6.03125 -7.015625 5.8125 -7.015625 L 2.34375 -7.015625 L 2.34375 -4.765625 L 5.578125 -4.765625 C 5.796875 -4.765625 5.96875 -4.710938 6.09375 -4.609375 C 6.21875 -4.503906 6.28125 -4.359375 6.28125 -4.171875 C 6.28125 -3.984375 6.21875 -3.835938 6.09375 -3.734375 C 5.96875 -3.628906 5.796875 -3.578125 5.578125 -3.578125 L 2.34375 -3.578125 L 2.34375 -1.1875 L 5.8125 -1.1875 C 6.03125 -1.1875 6.203125 -1.132812 6.328125 -1.03125 C 6.453125 -0.925781 6.515625 -0.773438 6.515625 -0.578125 C 6.515625 -0.390625 6.453125 -0.242188 6.328125 -0.140625 C 6.203125 -0.046875 6.03125 0 5.8125 0 Z M 1.609375 0 "></path></g></g><g style="fill:#2f243a;fill-opacity:1;"><g transform="translate(141.460545, 285.556884)"><path style="stroke:none" d="M 7.09375 -8.265625 C 7.3125 -8.265625 7.484375 -8.195312 7.609375 -8.0625 C 7.742188 -7.925781 7.8125 -7.742188 7.8125 -7.515625 L 7.8125 -0.6875 C 7.8125 -0.457031 7.742188 -0.273438 7.609375 -0.140625 C 7.484375 -0.00390625 7.3125 0.0625 7.09375 0.0625 C 6.851562 0.0625 6.664062 -0.0234375 6.53125 -0.203125 L 2.28125 -5.734375 L 2.28125 -0.6875 C 2.28125 -0.457031 2.21875 -0.273438 2.09375 -0.140625 C 1.96875 -0.00390625 1.796875 0.0625 1.578125 0.0625 C 1.359375 0.0625 1.1875 -0.00390625 1.0625 -0.140625 C 0.945312 -0.273438 0.890625 -0.457031 0.890625 -0.6875 L 0.890625 -7.515625 C 0.890625 -7.742188 0.953125 -7.925781 1.078125 -8.0625 C 1.210938 -8.195312 1.390625 -8.265625 1.609375 -8.265625 C 1.847656 -8.265625 2.035156 -8.175781 2.171875 -8 L 6.40625 -2.484375 L 6.40625 -7.515625 C 6.40625 -7.742188 6.46875 -7.925781 6.59375 -8.0625 C 6.71875 -8.195312 6.882812 -8.265625 7.09375 -8.265625 Z M 7.09375 -8.265625 "></path></g></g><g style="fill:#2f243a;fill-opacity:1;"><g transform="translate(153.274063, 285.556884)"><path style="stroke:none" d="M 3.578125 0.0625 C 3.335938 0.0625 3.148438 -0.00390625 3.015625 -0.140625 C 2.878906 -0.273438 2.8125 -0.457031 2.8125 -0.6875 L 2.8125 -6.96875 L 0.703125 -6.96875 C 0.234375 -6.96875 0 -7.175781 0 -7.59375 C 0 -8 0.234375 -8.203125 0.703125 -8.203125 L 6.4375 -8.203125 C 6.90625 -8.203125 7.140625 -8 7.140625 -7.59375 C 7.140625 -7.175781 6.90625 -6.96875 6.4375 -6.96875 L 4.3125 -6.96875 L 4.3125 -0.6875 C 4.3125 -0.457031 4.242188 -0.273438 4.109375 -0.140625 C 3.972656 -0.00390625 3.796875 0.0625 3.578125 0.0625 Z M 3.578125 0.0625 "></path></g></g><g style="fill:#2f243a;fill-opacity:1;"><g transform="translate(163.528266, 285.556884)"><path style="stroke:none" d="M 3.71875 0.109375 C 3.125 0.109375 2.5625 0.03125 2.03125 -0.125 C 1.5 -0.289062 1.066406 -0.507812 0.734375 -0.78125 C 0.554688 -0.914062 0.46875 -1.101562 0.46875 -1.34375 C 0.46875 -1.5 0.515625 -1.632812 0.609375 -1.75 C 0.703125 -1.875 0.816406 -1.9375 0.953125 -1.9375 C 1.085938 -1.9375 1.25 -1.882812 1.4375 -1.78125 C 1.769531 -1.539062 2.117188 -1.363281 2.484375 -1.25 C 2.847656 -1.144531 3.25 -1.09375 3.6875 -1.09375 C 4.257812 -1.09375 4.695312 -1.191406 5 -1.390625 C 5.300781 -1.585938 5.453125 -1.878906 5.453125 -2.265625 C 5.453125 -2.554688 5.304688 -2.78125 5.015625 -2.9375 C 4.734375 -3.09375 4.265625 -3.25 3.609375 -3.40625 C 2.921875 -3.550781 2.363281 -3.71875 1.9375 -3.90625 C 1.507812 -4.101562 1.1875 -4.351562 0.96875 -4.65625 C 0.757812 -4.957031 0.65625 -5.34375 0.65625 -5.8125 C 0.65625 -6.289062 0.789062 -6.71875 1.0625 -7.09375 C 1.332031 -7.476562 1.707031 -7.773438 2.1875 -7.984375 C 2.675781 -8.203125 3.222656 -8.3125 3.828125 -8.3125 C 4.941406 -8.3125 5.847656 -8.015625 6.546875 -7.421875 C 6.640625 -7.335938 6.707031 -7.253906 6.75 -7.171875 C 6.800781 -7.085938 6.828125 -6.988281 6.828125 -6.875 C 6.828125 -6.707031 6.773438 -6.5625 6.671875 -6.4375 C 6.578125 -6.320312 6.460938 -6.265625 6.328125 -6.265625 C 6.253906 -6.265625 6.179688 -6.273438 6.109375 -6.296875 C 6.046875 -6.316406 5.960938 -6.359375 5.859375 -6.421875 C 5.535156 -6.660156 5.222656 -6.832031 4.921875 -6.9375 C 4.628906 -7.050781 4.265625 -7.109375 3.828125 -7.109375 C 3.296875 -7.109375 2.878906 -7 2.578125 -6.78125 C 2.273438 -6.570312 2.125 -6.28125 2.125 -5.90625 C 2.125 -5.582031 2.257812 -5.332031 2.53125 -5.15625 C 2.800781 -4.988281 3.257812 -4.832031 3.90625 -4.6875 C 4.601562 -4.53125 5.164062 -4.359375 5.59375 -4.171875 C 6.019531 -3.984375 6.347656 -3.738281 6.578125 -3.4375 C 6.804688 -3.144531 6.921875 -2.78125 6.921875 -2.34375 C 6.921875 -1.863281 6.785156 -1.4375 6.515625 -1.0625 C 6.253906 -0.695312 5.878906 -0.410156 5.390625 -0.203125 C 4.910156 0.00390625 4.351562 0.109375 3.71875 0.109375 Z M 3.71875 0.109375 "></path></g></g><g style="fill:#2f243a;fill-opacity:1;"><g transform="translate(174.073378, 285.556884)"><path style="stroke:none" d=""></path></g></g><g style="fill:#2f243a;fill-opacity:1;"><g transform="translate(180.34783, 285.556884)"><path style="stroke:none" d="M 1.625 0.0625 C 1.40625 0.0625 1.226562 -0.00390625 1.09375 -0.140625 C 0.957031 -0.273438 0.890625 -0.457031 0.890625 -0.6875 L 0.890625 -7.5 C 0.890625 -7.71875 0.953125 -7.890625 1.078125 -8.015625 C 1.203125 -8.140625 1.378906 -8.203125 1.609375 -8.203125 L 5.6875 -8.203125 C 6.164062 -8.203125 6.40625 -8 6.40625 -7.59375 C 6.40625 -7.195312 6.164062 -7 5.6875 -7 L 2.359375 -7 L 2.359375 -4.765625 L 5.453125 -4.765625 C 5.929688 -4.765625 6.171875 -4.566406 6.171875 -4.171875 C 6.171875 -3.773438 5.929688 -3.578125 5.453125 -3.578125 L 2.359375 -3.578125 L 2.359375 -0.6875 C 2.359375 -0.457031 2.289062 -0.273438 2.15625 -0.140625 C 2.03125 -0.00390625 1.851562 0.0625 1.625 0.0625 Z M 1.625 0.0625 "></path></g></g><g style="fill:#2f243a;fill-opacity:1;"><g transform="translate(190.055108, 285.556884)"><path style="stroke:none" d="M 4.546875 0.109375 C 3.742188 0.109375 3.046875 -0.0625 2.453125 -0.40625 C 1.867188 -0.75 1.414062 -1.238281 1.09375 -1.875 C 0.78125 -2.507812 0.625 -3.253906 0.625 -4.109375 C 0.625 -4.960938 0.78125 -5.703125 1.09375 -6.328125 C 1.414062 -6.960938 1.867188 -7.453125 2.453125 -7.796875 C 3.046875 -8.140625 3.742188 -8.3125 4.546875 -8.3125 C 5.335938 -8.3125 6.023438 -8.140625 6.609375 -7.796875 C 7.203125 -7.453125 7.65625 -6.960938 7.96875 -6.328125 C 8.28125 -5.703125 8.4375 -4.960938 8.4375 -4.109375 C 8.4375 -3.253906 8.273438 -2.507812 7.953125 -1.875 C 7.640625 -1.238281 7.191406 -0.75 6.609375 -0.40625 C 6.023438 -0.0625 5.335938 0.109375 4.546875 0.109375 Z M 4.546875 -1.09375 C 5.296875 -1.09375 5.878906 -1.351562 6.296875 -1.875 C 6.722656 -2.394531 6.9375 -3.140625 6.9375 -4.109375 C 6.9375 -5.078125 6.722656 -5.816406 6.296875 -6.328125 C 5.878906 -6.847656 5.296875 -7.109375 4.546875 -7.109375 C 3.785156 -7.109375 3.191406 -6.847656 2.765625 -6.328125 C 2.335938 -5.816406 2.125 -5.078125 2.125 -4.109375 C 2.125 -3.140625 2.335938 -2.394531 2.765625 -1.875 C 3.191406 -1.351562 3.785156 -1.09375 4.546875 -1.09375 Z M 4.546875 -1.09375 "></path></g></g><g style="fill:#2f243a;fill-opacity:1;"><g transform="translate(202.240994, 285.556884)"><path style="stroke:none" d="M 7.453125 -0.9375 C 7.546875 -0.800781 7.59375 -0.664062 7.59375 -0.53125 C 7.59375 -0.351562 7.519531 -0.207031 7.375 -0.09375 C 7.226562 0.0195312 7.0625 0.078125 6.875 0.078125 C 6.75 0.078125 6.628906 0.0507812 6.515625 0 C 6.398438 -0.0625 6.304688 -0.148438 6.234375 -0.265625 L 4.671875 -2.625 C 4.523438 -2.863281 4.363281 -3.035156 4.1875 -3.140625 C 4.007812 -3.242188 3.78125 -3.296875 3.5 -3.296875 L 2.359375 -3.296875 L 2.359375 -0.6875 C 2.359375 -0.457031 2.289062 -0.273438 2.15625 -0.140625 C 2.03125 -0.00390625 1.851562 0.0625 1.625 0.0625 C 1.40625 0.0625 1.226562 -0.00390625 1.09375 -0.140625 C 0.957031 -0.273438 0.890625 -0.457031 0.890625 -0.6875 L 0.890625 -7.5 C 0.890625 -7.71875 0.953125 -7.890625 1.078125 -8.015625 C 1.203125 -8.140625 1.378906 -8.203125 1.609375 -8.203125 L 4.515625 -8.203125 C 5.441406 -8.203125 6.148438 -7.992188 6.640625 -7.578125 C 7.128906 -7.171875 7.375 -6.570312 7.375 -5.78125 C 7.375 -5.144531 7.191406 -4.625 6.828125 -4.21875 C 6.460938 -3.8125 5.953125 -3.550781 5.296875 -3.4375 C 5.523438 -3.382812 5.722656 -3.285156 5.890625 -3.140625 C 6.054688 -3.003906 6.222656 -2.8125 6.390625 -2.5625 Z M 4.3125 -4.453125 C 4.875 -4.453125 5.285156 -4.554688 5.546875 -4.765625 C 5.816406 -4.984375 5.953125 -5.3125 5.953125 -5.75 C 5.953125 -6.195312 5.816406 -6.523438 5.546875 -6.734375 C 5.285156 -6.941406 4.875 -7.046875 4.3125 -7.046875 L 2.34375 -7.046875 L 2.34375 -4.453125 Z M 4.3125 -4.453125 "></path></g></g><g style="fill:#2f243a;fill-opacity:1;"><g transform="translate(213.449405, 285.556884)"><path style="stroke:none" d=""></path></g></g><g style="fill:#2f243a;fill-opacity:1;"><g transform="translate(219.723857, 285.556884)"><path style="stroke:none" d="M 1.625 0.0625 C 1.40625 0.0625 1.226562 -0.00390625 1.09375 -0.140625 C 0.957031 -0.273438 0.890625 -0.457031 0.890625 -0.6875 L 0.890625 -7.5 C 0.890625 -7.71875 0.953125 -7.890625 1.078125 -8.015625 C 1.203125 -8.140625 1.378906 -8.203125 1.609375 -8.203125 L 4.46875 -8.203125 C 5.34375 -8.203125 6.023438 -7.984375 6.515625 -7.546875 C 7.003906 -7.109375 7.25 -6.492188 7.25 -5.703125 C 7.25 -4.910156 7.003906 -4.289062 6.515625 -3.84375 C 6.023438 -3.40625 5.34375 -3.1875 4.46875 -3.1875 L 2.390625 -3.1875 L 2.390625 -0.6875 C 2.390625 -0.457031 2.320312 -0.273438 2.1875 -0.140625 C 2.050781 -0.00390625 1.863281 0.0625 1.625 0.0625 Z M 4.28125 -4.34375 C 5.3125 -4.34375 5.828125 -4.789062 5.828125 -5.6875 C 5.828125 -6.59375 5.3125 -7.046875 4.28125 -7.046875 L 2.390625 -7.046875 L 2.390625 -4.34375 Z M 4.28125 -4.34375 "></path></g></g><g style="fill:#2f243a;fill-opacity:1;"><g transform="translate(230.524985, 285.556884)"><path style="stroke:none" d="M 8.328125 -0.890625 C 8.367188 -0.796875 8.390625 -0.695312 8.390625 -0.59375 C 8.390625 -0.414062 8.316406 -0.265625 8.171875 -0.140625 C 8.035156 -0.015625 7.875 0.046875 7.6875 0.046875 C 7.5625 0.046875 7.441406 0.015625 7.328125 -0.046875 C 7.222656 -0.117188 7.140625 -0.222656 7.078125 -0.359375 L 6.375 -1.921875 L 2.28125 -1.921875 L 1.578125 -0.359375 C 1.515625 -0.222656 1.425781 -0.117188 1.3125 -0.046875 C 1.207031 0.015625 1.09375 0.046875 0.96875 0.046875 C 0.789062 0.046875 0.625 -0.015625 0.46875 -0.140625 C 0.320312 -0.265625 0.25 -0.414062 0.25 -0.59375 C 0.25 -0.695312 0.273438 -0.796875 0.328125 -0.890625 L 3.53125 -7.796875 C 3.601562 -7.953125 3.710938 -8.070312 3.859375 -8.15625 C 4.003906 -8.238281 4.15625 -8.28125 4.3125 -8.28125 C 4.476562 -8.28125 4.632812 -8.238281 4.78125 -8.15625 C 4.925781 -8.070312 5.03125 -7.953125 5.09375 -7.796875 Z M 2.796875 -3.078125 L 5.859375 -3.078125 L 4.328125 -6.546875 Z M 2.796875 -3.078125 "></path></g></g><g style="fill:#2f243a;fill-opacity:1;"><g transform="translate(242.280309, 285.556884)"><path style="stroke:none" d="M 3.578125 0.0625 C 3.335938 0.0625 3.148438 -0.00390625 3.015625 -0.140625 C 2.878906 -0.273438 2.8125 -0.457031 2.8125 -0.6875 L 2.8125 -6.96875 L 0.703125 -6.96875 C 0.234375 -6.96875 0 -7.175781 0 -7.59375 C 0 -8 0.234375 -8.203125 0.703125 -8.203125 L 6.4375 -8.203125 C 6.90625 -8.203125 7.140625 -8 7.140625 -7.59375 C 7.140625 -7.175781 6.90625 -6.96875 6.4375 -6.96875 L 4.3125 -6.96875 L 4.3125 -0.6875 C 4.3125 -0.457031 4.242188 -0.273438 4.109375 -0.140625 C 3.972656 -0.00390625 3.796875 0.0625 3.578125 0.0625 Z M 3.578125 0.0625 "></path></g></g><g style="fill:#2f243a;fill-opacity:1;"><g transform="translate(252.534512, 285.556884)"><path style="stroke:none" d="M 1.625 0.0625 C 1.40625 0.0625 1.226562 -0.00390625 1.09375 -0.140625 C 0.957031 -0.273438 0.890625 -0.457031 0.890625 -0.6875 L 0.890625 -7.515625 C 0.890625 -7.742188 0.957031 -7.925781 1.09375 -8.0625 C 1.226562 -8.195312 1.40625 -8.265625 1.625 -8.265625 C 1.863281 -8.265625 2.050781 -8.195312 2.1875 -8.0625 C 2.320312 -7.925781 2.390625 -7.742188 2.390625 -7.515625 L 2.390625 -0.6875 C 2.390625 -0.457031 2.320312 -0.273438 2.1875 -0.140625 C 2.050781 -0.00390625 1.863281 0.0625 1.625 0.0625 Z M 1.625 0.0625 "></path></g></g><g style="fill:#2f243a;fill-opacity:1;"><g transform="translate(258.925339, 285.556884)"><path style="stroke:none" d="M 1.609375 0 C 1.378906 0 1.203125 -0.0625 1.078125 -0.1875 C 0.953125 -0.3125 0.890625 -0.484375 0.890625 -0.703125 L 0.890625 -7.5 C 0.890625 -7.71875 0.953125 -7.890625 1.078125 -8.015625 C 1.203125 -8.140625 1.378906 -8.203125 1.609375 -8.203125 L 5.8125 -8.203125 C 6.03125 -8.203125 6.203125 -8.148438 6.328125 -8.046875 C 6.453125 -7.953125 6.515625 -7.8125 6.515625 -7.625 C 6.515625 -7.425781 6.453125 -7.273438 6.328125 -7.171875 C 6.203125 -7.066406 6.03125 -7.015625 5.8125 -7.015625 L 2.34375 -7.015625 L 2.34375 -4.765625 L 5.578125 -4.765625 C 5.796875 -4.765625 5.96875 -4.710938 6.09375 -4.609375 C 6.21875 -4.503906 6.28125 -4.359375 6.28125 -4.171875 C 6.28125 -3.984375 6.21875 -3.835938 6.09375 -3.734375 C 5.96875 -3.628906 5.796875 -3.578125 5.578125 -3.578125 L 2.34375 -3.578125 L 2.34375 -1.1875 L 5.8125 -1.1875 C 6.03125 -1.1875 6.203125 -1.132812 6.328125 -1.03125 C 6.453125 -0.925781 6.515625 -0.773438 6.515625 -0.578125 C 6.515625 -0.390625 6.453125 -0.242188 6.328125 -0.140625 C 6.203125 -0.046875 6.03125 0 5.8125 0 Z M 1.609375 0 "></path></g></g><g style="fill:#2f243a;fill-opacity:1;"><g transform="translate(268.900261, 285.556884)"><path style="stroke:none" d="M 7.09375 -8.265625 C 7.3125 -8.265625 7.484375 -8.195312 7.609375 -8.0625 C 7.742188 -7.925781 7.8125 -7.742188 7.8125 -7.515625 L 7.8125 -0.6875 C 7.8125 -0.457031 7.742188 -0.273438 7.609375 -0.140625 C 7.484375 -0.00390625 7.3125 0.0625 7.09375 0.0625 C 6.851562 0.0625 6.664062 -0.0234375 6.53125 -0.203125 L 2.28125 -5.734375 L 2.28125 -0.6875 C 2.28125 -0.457031 2.21875 -0.273438 2.09375 -0.140625 C 1.96875 -0.00390625 1.796875 0.0625 1.578125 0.0625 C 1.359375 0.0625 1.1875 -0.00390625 1.0625 -0.140625 C 0.945312 -0.273438 0.890625 -0.457031 0.890625 -0.6875 L 0.890625 -7.515625 C 0.890625 -7.742188 0.953125 -7.925781 1.078125 -8.0625 C 1.210938 -8.195312 1.390625 -8.265625 1.609375 -8.265625 C 1.847656 -8.265625 2.035156 -8.175781 2.171875 -8 L 6.40625 -2.484375 L 6.40625 -7.515625 C 6.40625 -7.742188 6.46875 -7.925781 6.59375 -8.0625 C 6.71875 -8.195312 6.882812 -8.265625 7.09375 -8.265625 Z M 7.09375 -8.265625 "></path></g></g><g style="fill:#2f243a;fill-opacity:1;"><g transform="translate(280.71379, 285.556884)"><path style="stroke:none" d="M 3.578125 0.0625 C 3.335938 0.0625 3.148438 -0.00390625 3.015625 -0.140625 C 2.878906 -0.273438 2.8125 -0.457031 2.8125 -0.6875 L 2.8125 -6.96875 L 0.703125 -6.96875 C 0.234375 -6.96875 0 -7.175781 0 -7.59375 C 0 -8 0.234375 -8.203125 0.703125 -8.203125 L 6.4375 -8.203125 C 6.90625 -8.203125 7.140625 -8 7.140625 -7.59375 C 7.140625 -7.175781 6.90625 -6.96875 6.4375 -6.96875 L 4.3125 -6.96875 L 4.3125 -0.6875 C 4.3125 -0.457031 4.242188 -0.273438 4.109375 -0.140625 C 3.972656 -0.00390625 3.796875 0.0625 3.578125 0.0625 Z M 3.578125 0.0625 "></path></g></g><g style="fill:#2f243a;fill-opacity:1;"><g transform="translate(85.95715, 301.306883)"><path style="stroke:none" d="M 8.328125 -0.890625 C 8.367188 -0.796875 8.390625 -0.695312 8.390625 -0.59375 C 8.390625 -0.414062 8.316406 -0.265625 8.171875 -0.140625 C 8.035156 -0.015625 7.875 0.046875 7.6875 0.046875 C 7.5625 0.046875 7.441406 0.015625 7.328125 -0.046875 C 7.222656 -0.117188 7.140625 -0.222656 7.078125 -0.359375 L 6.375 -1.921875 L 2.28125 -1.921875 L 1.578125 -0.359375 C 1.515625 -0.222656 1.425781 -0.117188 1.3125 -0.046875 C 1.207031 0.015625 1.09375 0.046875 0.96875 0.046875 C 0.789062 0.046875 0.625 -0.015625 0.46875 -0.140625 C 0.320312 -0.265625 0.25 -0.414062 0.25 -0.59375 C 0.25 -0.695312 0.273438 -0.796875 0.328125 -0.890625 L 3.53125 -7.796875 C 3.601562 -7.953125 3.710938 -8.070312 3.859375 -8.15625 C 4.003906 -8.238281 4.15625 -8.28125 4.3125 -8.28125 C 4.476562 -8.28125 4.632812 -8.238281 4.78125 -8.15625 C 4.925781 -8.070312 5.03125 -7.953125 5.09375 -7.796875 Z M 2.796875 -3.078125 L 5.859375 -3.078125 L 4.328125 -6.546875 Z M 2.796875 -3.078125 "></path></g></g><g style="fill:#2f243a;fill-opacity:1;"><g transform="translate(97.712475, 301.306883)"><path style="stroke:none" d="M 1.609375 0 C 1.378906 0 1.203125 -0.0625 1.078125 -0.1875 C 0.953125 -0.3125 0.890625 -0.484375 0.890625 -0.703125 L 0.890625 -7.5 C 0.890625 -7.71875 0.953125 -7.890625 1.078125 -8.015625 C 1.203125 -8.140625 1.378906 -8.203125 1.609375 -8.203125 L 3.90625 -8.203125 C 5.25 -8.203125 6.289062 -7.84375 7.03125 -7.125 C 7.769531 -6.40625 8.140625 -5.398438 8.140625 -4.109375 C 8.140625 -2.804688 7.769531 -1.796875 7.03125 -1.078125 C 6.289062 -0.359375 5.25 0 3.90625 0 Z M 3.8125 -1.21875 C 5.695312 -1.21875 6.640625 -2.179688 6.640625 -4.109375 C 6.640625 -6.023438 5.695312 -6.984375 3.8125 -6.984375 L 2.390625 -6.984375 L 2.390625 -1.21875 Z M 3.8125 -1.21875 "></path></g></g><g style="fill:#2f243a;fill-opacity:1;"><g transform="translate(109.60744, 301.306883)"><path style="stroke:none" d="M 6.859375 -7.875 C 6.984375 -8.144531 7.1875 -8.28125 7.46875 -8.28125 C 7.664062 -8.28125 7.84375 -8.21875 8 -8.09375 C 8.15625 -7.96875 8.234375 -7.8125 8.234375 -7.625 C 8.234375 -7.539062 8.207031 -7.441406 8.15625 -7.328125 L 4.9375 -0.390625 C 4.863281 -0.242188 4.753906 -0.128906 4.609375 -0.046875 C 4.472656 0.0234375 4.320312 0.0625 4.15625 0.0625 C 3.988281 0.0625 3.832031 0.0234375 3.6875 -0.046875 C 3.550781 -0.128906 3.445312 -0.242188 3.375 -0.390625 L 0.15625 -7.328125 C 0.113281 -7.441406 0.09375 -7.535156 0.09375 -7.609375 C 0.09375 -7.804688 0.171875 -7.96875 0.328125 -8.09375 C 0.492188 -8.21875 0.675781 -8.28125 0.875 -8.28125 C 1.007812 -8.28125 1.128906 -8.242188 1.234375 -8.171875 C 1.347656 -8.109375 1.4375 -8.007812 1.5 -7.875 L 4.171875 -1.9375 Z M 6.859375 -7.875 "></path></g></g><g style="fill:#2f243a;fill-opacity:1;"><g transform="translate(121.03694, 301.306883)"><path style="stroke:none" d="M 4.546875 0.109375 C 3.742188 0.109375 3.046875 -0.0625 2.453125 -0.40625 C 1.867188 -0.75 1.414062 -1.238281 1.09375 -1.875 C 0.78125 -2.507812 0.625 -3.253906 0.625 -4.109375 C 0.625 -4.960938 0.78125 -5.703125 1.09375 -6.328125 C 1.414062 -6.960938 1.867188 -7.453125 2.453125 -7.796875 C 3.046875 -8.140625 3.742188 -8.3125 4.546875 -8.3125 C 5.335938 -8.3125 6.023438 -8.140625 6.609375 -7.796875 C 7.203125 -7.453125 7.65625 -6.960938 7.96875 -6.328125 C 8.28125 -5.703125 8.4375 -4.960938 8.4375 -4.109375 C 8.4375 -3.253906 8.273438 -2.507812 7.953125 -1.875 C 7.640625 -1.238281 7.191406 -0.75 6.609375 -0.40625 C 6.023438 -0.0625 5.335938 0.109375 4.546875 0.109375 Z M 4.546875 -1.09375 C 5.296875 -1.09375 5.878906 -1.351562 6.296875 -1.875 C 6.722656 -2.394531 6.9375 -3.140625 6.9375 -4.109375 C 6.9375 -5.078125 6.722656 -5.816406 6.296875 -6.328125 C 5.878906 -6.847656 5.296875 -7.109375 4.546875 -7.109375 C 3.785156 -7.109375 3.191406 -6.847656 2.765625 -6.328125 C 2.335938 -5.816406 2.125 -5.078125 2.125 -4.109375 C 2.125 -3.140625 2.335938 -2.394531 2.765625 -1.875 C 3.191406 -1.351562 3.785156 -1.09375 4.546875 -1.09375 Z M 4.546875 -1.09375 "></path></g></g><g style="fill:#2f243a;fill-opacity:1;"><g transform="translate(133.222825, 301.306883)"><path style="stroke:none" d="M 4.546875 0.109375 C 3.753906 0.109375 3.0625 -0.0625 2.46875 -0.40625 C 1.875 -0.75 1.414062 -1.238281 1.09375 -1.875 C 0.78125 -2.507812 0.625 -3.253906 0.625 -4.109375 C 0.625 -4.960938 0.78125 -5.703125 1.09375 -6.328125 C 1.414062 -6.960938 1.875 -7.453125 2.46875 -7.796875 C 3.0625 -8.140625 3.753906 -8.3125 4.546875 -8.3125 C 5.054688 -8.3125 5.535156 -8.234375 5.984375 -8.078125 C 6.441406 -7.929688 6.84375 -7.710938 7.1875 -7.421875 C 7.289062 -7.347656 7.363281 -7.265625 7.40625 -7.171875 C 7.445312 -7.085938 7.46875 -6.988281 7.46875 -6.875 C 7.46875 -6.695312 7.421875 -6.550781 7.328125 -6.4375 C 7.234375 -6.320312 7.117188 -6.265625 6.984375 -6.265625 C 6.828125 -6.265625 6.664062 -6.316406 6.5 -6.421875 C 6.164062 -6.671875 5.851562 -6.84375 5.5625 -6.9375 C 5.28125 -7.039062 4.96875 -7.09375 4.625 -7.09375 C 3.8125 -7.09375 3.195312 -6.835938 2.78125 -6.328125 C 2.375 -5.828125 2.171875 -5.085938 2.171875 -4.109375 C 2.171875 -3.117188 2.375 -2.375 2.78125 -1.875 C 3.195312 -1.375 3.8125 -1.125 4.625 -1.125 C 4.957031 -1.125 5.265625 -1.171875 5.546875 -1.265625 C 5.828125 -1.367188 6.144531 -1.539062 6.5 -1.78125 C 6.582031 -1.820312 6.660156 -1.859375 6.734375 -1.890625 C 6.816406 -1.921875 6.898438 -1.9375 6.984375 -1.9375 C 7.117188 -1.9375 7.234375 -1.878906 7.328125 -1.765625 C 7.421875 -1.648438 7.46875 -1.507812 7.46875 -1.34375 C 7.46875 -1.21875 7.445312 -1.109375 7.40625 -1.015625 C 7.363281 -0.929688 7.289062 -0.851562 7.1875 -0.78125 C 6.84375 -0.488281 6.441406 -0.265625 5.984375 -0.109375 C 5.535156 0.0351562 5.054688 0.109375 4.546875 0.109375 Z M 4.546875 0.109375 "></path></g></g><g style="fill:#2f243a;fill-opacity:1;"><g transform="translate(144.233403, 301.306883)"><path style="stroke:none" d="M 8.328125 -0.890625 C 8.367188 -0.796875 8.390625 -0.695312 8.390625 -0.59375 C 8.390625 -0.414062 8.316406 -0.265625 8.171875 -0.140625 C 8.035156 -0.015625 7.875 0.046875 7.6875 0.046875 C 7.5625 0.046875 7.441406 0.015625 7.328125 -0.046875 C 7.222656 -0.117188 7.140625 -0.222656 7.078125 -0.359375 L 6.375 -1.921875 L 2.28125 -1.921875 L 1.578125 -0.359375 C 1.515625 -0.222656 1.425781 -0.117188 1.3125 -0.046875 C 1.207031 0.015625 1.09375 0.046875 0.96875 0.046875 C 0.789062 0.046875 0.625 -0.015625 0.46875 -0.140625 C 0.320312 -0.265625 0.25 -0.414062 0.25 -0.59375 C 0.25 -0.695312 0.273438 -0.796875 0.328125 -0.890625 L 3.53125 -7.796875 C 3.601562 -7.953125 3.710938 -8.070312 3.859375 -8.15625 C 4.003906 -8.238281 4.15625 -8.28125 4.3125 -8.28125 C 4.476562 -8.28125 4.632812 -8.238281 4.78125 -8.15625 C 4.925781 -8.070312 5.03125 -7.953125 5.09375 -7.796875 Z M 2.796875 -3.078125 L 5.859375 -3.078125 L 4.328125 -6.546875 Z M 2.796875 -3.078125 "></path></g></g><g style="fill:#2f243a;fill-opacity:1;"><g transform="translate(155.988727, 301.306883)"><path style="stroke:none" d="M 4.546875 0.109375 C 3.753906 0.109375 3.0625 -0.0625 2.46875 -0.40625 C 1.875 -0.75 1.414062 -1.238281 1.09375 -1.875 C 0.78125 -2.507812 0.625 -3.253906 0.625 -4.109375 C 0.625 -4.960938 0.78125 -5.703125 1.09375 -6.328125 C 1.414062 -6.960938 1.875 -7.453125 2.46875 -7.796875 C 3.0625 -8.140625 3.753906 -8.3125 4.546875 -8.3125 C 5.054688 -8.3125 5.535156 -8.234375 5.984375 -8.078125 C 6.441406 -7.929688 6.84375 -7.710938 7.1875 -7.421875 C 7.289062 -7.347656 7.363281 -7.265625 7.40625 -7.171875 C 7.445312 -7.085938 7.46875 -6.988281 7.46875 -6.875 C 7.46875 -6.695312 7.421875 -6.550781 7.328125 -6.4375 C 7.234375 -6.320312 7.117188 -6.265625 6.984375 -6.265625 C 6.828125 -6.265625 6.664062 -6.316406 6.5 -6.421875 C 6.164062 -6.671875 5.851562 -6.84375 5.5625 -6.9375 C 5.28125 -7.039062 4.96875 -7.09375 4.625 -7.09375 C 3.8125 -7.09375 3.195312 -6.835938 2.78125 -6.328125 C 2.375 -5.828125 2.171875 -5.085938 2.171875 -4.109375 C 2.171875 -3.117188 2.375 -2.375 2.78125 -1.875 C 3.195312 -1.375 3.8125 -1.125 4.625 -1.125 C 4.957031 -1.125 5.265625 -1.171875 5.546875 -1.265625 C 5.828125 -1.367188 6.144531 -1.539062 6.5 -1.78125 C 6.582031 -1.820312 6.660156 -1.859375 6.734375 -1.890625 C 6.816406 -1.921875 6.898438 -1.9375 6.984375 -1.9375 C 7.117188 -1.9375 7.234375 -1.878906 7.328125 -1.765625 C 7.421875 -1.648438 7.46875 -1.507812 7.46875 -1.34375 C 7.46875 -1.21875 7.445312 -1.109375 7.40625 -1.015625 C 7.363281 -0.929688 7.289062 -0.851562 7.1875 -0.78125 C 6.84375 -0.488281 6.441406 -0.265625 5.984375 -0.109375 C 5.535156 0.0351562 5.054688 0.109375 4.546875 0.109375 Z M 4.546875 0.109375 "></path></g></g><g style="fill:#2f243a;fill-opacity:1;"><g transform="translate(166.999305, 301.306883)"><path style="stroke:none" d="M 6 -8.015625 C 6.144531 -8.179688 6.3125 -8.265625 6.5 -8.265625 C 6.6875 -8.265625 6.847656 -8.195312 6.984375 -8.0625 C 7.117188 -7.925781 7.1875 -7.765625 7.1875 -7.578125 C 7.1875 -7.421875 7.128906 -7.273438 7.015625 -7.140625 L 4.375 -3.90625 L 4.375 -0.6875 C 4.375 -0.445312 4.300781 -0.257812 4.15625 -0.125 C 4.019531 0 3.84375 0.0625 3.625 0.0625 C 3.40625 0.0625 3.222656 0 3.078125 -0.125 C 2.941406 -0.257812 2.875 -0.445312 2.875 -0.6875 L 2.875 -3.90625 L 0.234375 -7.140625 C 0.117188 -7.273438 0.0625 -7.421875 0.0625 -7.578125 C 0.0625 -7.765625 0.128906 -7.925781 0.265625 -8.0625 C 0.410156 -8.195312 0.570312 -8.265625 0.75 -8.265625 C 0.9375 -8.265625 1.101562 -8.179688 1.25 -8.015625 L 3.625 -5.046875 Z M 6 -8.015625 "></path></g></g><g style="fill:#2f243a;fill-opacity:1;"><g transform="translate(177.369871, 301.306883)"><path style="stroke:none" d=""></path></g></g><g style="fill:#2f243a;fill-opacity:1;"><g transform="translate(183.644323, 301.306883)"><path style="stroke:none" d="M 7.09375 -8.265625 C 7.3125 -8.265625 7.484375 -8.195312 7.609375 -8.0625 C 7.742188 -7.925781 7.8125 -7.742188 7.8125 -7.515625 L 7.8125 -0.6875 C 7.8125 -0.457031 7.742188 -0.273438 7.609375 -0.140625 C 7.484375 -0.00390625 7.3125 0.0625 7.09375 0.0625 C 6.851562 0.0625 6.664062 -0.0234375 6.53125 -0.203125 L 2.28125 -5.734375 L 2.28125 -0.6875 C 2.28125 -0.457031 2.21875 -0.273438 2.09375 -0.140625 C 1.96875 -0.00390625 1.796875 0.0625 1.578125 0.0625 C 1.359375 0.0625 1.1875 -0.00390625 1.0625 -0.140625 C 0.945312 -0.273438 0.890625 -0.457031 0.890625 -0.6875 L 0.890625 -7.515625 C 0.890625 -7.742188 0.953125 -7.925781 1.078125 -8.0625 C 1.210938 -8.195312 1.390625 -8.265625 1.609375 -8.265625 C 1.847656 -8.265625 2.035156 -8.175781 2.171875 -8 L 6.40625 -2.484375 L 6.40625 -7.515625 C 6.40625 -7.742188 6.46875 -7.925781 6.59375 -8.0625 C 6.71875 -8.195312 6.882812 -8.265625 7.09375 -8.265625 Z M 7.09375 -8.265625 "></path></g></g><g style="fill:#2f243a;fill-opacity:1;"><g transform="translate(195.457841, 301.306883)"><path style="stroke:none" d="M 8.328125 -0.890625 C 8.367188 -0.796875 8.390625 -0.695312 8.390625 -0.59375 C 8.390625 -0.414062 8.316406 -0.265625 8.171875 -0.140625 C 8.035156 -0.015625 7.875 0.046875 7.6875 0.046875 C 7.5625 0.046875 7.441406 0.015625 7.328125 -0.046875 C 7.222656 -0.117188 7.140625 -0.222656 7.078125 -0.359375 L 6.375 -1.921875 L 2.28125 -1.921875 L 1.578125 -0.359375 C 1.515625 -0.222656 1.425781 -0.117188 1.3125 -0.046875 C 1.207031 0.015625 1.09375 0.046875 0.96875 0.046875 C 0.789062 0.046875 0.625 -0.015625 0.46875 -0.140625 C 0.320312 -0.265625 0.25 -0.414062 0.25 -0.59375 C 0.25 -0.695312 0.273438 -0.796875 0.328125 -0.890625 L 3.53125 -7.796875 C 3.601562 -7.953125 3.710938 -8.070312 3.859375 -8.15625 C 4.003906 -8.238281 4.15625 -8.28125 4.3125 -8.28125 C 4.476562 -8.28125 4.632812 -8.238281 4.78125 -8.15625 C 4.925781 -8.070312 5.03125 -7.953125 5.09375 -7.796875 Z M 2.796875 -3.078125 L 5.859375 -3.078125 L 4.328125 -6.546875 Z M 2.796875 -3.078125 "></path></g></g><g style="fill:#2f243a;fill-opacity:1;"><g transform="translate(207.213165, 301.306883)"><path style="stroke:none" d="M 3.578125 0.0625 C 3.335938 0.0625 3.148438 -0.00390625 3.015625 -0.140625 C 2.878906 -0.273438 2.8125 -0.457031 2.8125 -0.6875 L 2.8125 -6.96875 L 0.703125 -6.96875 C 0.234375 -6.96875 0 -7.175781 0 -7.59375 C 0 -8 0.234375 -8.203125 0.703125 -8.203125 L 6.4375 -8.203125 C 6.90625 -8.203125 7.140625 -8 7.140625 -7.59375 C 7.140625 -7.175781 6.90625 -6.96875 6.4375 -6.96875 L 4.3125 -6.96875 L 4.3125 -0.6875 C 4.3125 -0.457031 4.242188 -0.273438 4.109375 -0.140625 C 3.972656 -0.00390625 3.796875 0.0625 3.578125 0.0625 Z M 3.578125 0.0625 "></path></g></g><g style="fill:#2f243a;fill-opacity:1;"><g transform="translate(217.467369, 301.306883)"><path style="stroke:none" d="M 1.625 0.0625 C 1.40625 0.0625 1.226562 -0.00390625 1.09375 -0.140625 C 0.957031 -0.273438 0.890625 -0.457031 0.890625 -0.6875 L 0.890625 -7.515625 C 0.890625 -7.742188 0.957031 -7.925781 1.09375 -8.0625 C 1.226562 -8.195312 1.40625 -8.265625 1.625 -8.265625 C 1.863281 -8.265625 2.050781 -8.195312 2.1875 -8.0625 C 2.320312 -7.925781 2.390625 -7.742188 2.390625 -7.515625 L 2.390625 -0.6875 C 2.390625 -0.457031 2.320312 -0.273438 2.1875 -0.140625 C 2.050781 -0.00390625 1.863281 0.0625 1.625 0.0625 Z M 1.625 0.0625 "></path></g></g><g style="fill:#2f243a;fill-opacity:1;"><g transform="translate(223.858195, 301.306883)"><path style="stroke:none" d="M 4.546875 0.109375 C 3.742188 0.109375 3.046875 -0.0625 2.453125 -0.40625 C 1.867188 -0.75 1.414062 -1.238281 1.09375 -1.875 C 0.78125 -2.507812 0.625 -3.253906 0.625 -4.109375 C 0.625 -4.960938 0.78125 -5.703125 1.09375 -6.328125 C 1.414062 -6.960938 1.867188 -7.453125 2.453125 -7.796875 C 3.046875 -8.140625 3.742188 -8.3125 4.546875 -8.3125 C 5.335938 -8.3125 6.023438 -8.140625 6.609375 -7.796875 C 7.203125 -7.453125 7.65625 -6.960938 7.96875 -6.328125 C 8.28125 -5.703125 8.4375 -4.960938 8.4375 -4.109375 C 8.4375 -3.253906 8.273438 -2.507812 7.953125 -1.875 C 7.640625 -1.238281 7.191406 -0.75 6.609375 -0.40625 C 6.023438 -0.0625 5.335938 0.109375 4.546875 0.109375 Z M 4.546875 -1.09375 C 5.296875 -1.09375 5.878906 -1.351562 6.296875 -1.875 C 6.722656 -2.394531 6.9375 -3.140625 6.9375 -4.109375 C 6.9375 -5.078125 6.722656 -5.816406 6.296875 -6.328125 C 5.878906 -6.847656 5.296875 -7.109375 4.546875 -7.109375 C 3.785156 -7.109375 3.191406 -6.847656 2.765625 -6.328125 C 2.335938 -5.816406 2.125 -5.078125 2.125 -4.109375 C 2.125 -3.140625 2.335938 -2.394531 2.765625 -1.875 C 3.191406 -1.351562 3.785156 -1.09375 4.546875 -1.09375 Z M 4.546875 -1.09375 "></path></g></g><g style="fill:#2f243a;fill-opacity:1;"><g transform="translate(236.044081, 301.306883)"><path style="stroke:none" d="M 7.09375 -8.265625 C 7.3125 -8.265625 7.484375 -8.195312 7.609375 -8.0625 C 7.742188 -7.925781 7.8125 -7.742188 7.8125 -7.515625 L 7.8125 -0.6875 C 7.8125 -0.457031 7.742188 -0.273438 7.609375 -0.140625 C 7.484375 -0.00390625 7.3125 0.0625 7.09375 0.0625 C 6.851562 0.0625 6.664062 -0.0234375 6.53125 -0.203125 L 2.28125 -5.734375 L 2.28125 -0.6875 C 2.28125 -0.457031 2.21875 -0.273438 2.09375 -0.140625 C 1.96875 -0.00390625 1.796875 0.0625 1.578125 0.0625 C 1.359375 0.0625 1.1875 -0.00390625 1.0625 -0.140625 C 0.945312 -0.273438 0.890625 -0.457031 0.890625 -0.6875 L 0.890625 -7.515625 C 0.890625 -7.742188 0.953125 -7.925781 1.078125 -8.0625 C 1.210938 -8.195312 1.390625 -8.265625 1.609375 -8.265625 C 1.847656 -8.265625 2.035156 -8.175781 2.171875 -8 L 6.40625 -2.484375 L 6.40625 -7.515625 C 6.40625 -7.742188 6.46875 -7.925781 6.59375 -8.0625 C 6.71875 -8.195312 6.882812 -8.265625 7.09375 -8.265625 Z M 7.09375 -8.265625 "></path></g></g><g style="fill:#2f243a;fill-opacity:1;"><g transform="translate(247.857599, 301.306883)"><path style="stroke:none" d="M 11.171875 -7.8125 C 11.222656 -7.96875 11.3125 -8.082031 11.4375 -8.15625 C 11.5625 -8.238281 11.695312 -8.28125 11.84375 -8.28125 C 12.03125 -8.28125 12.191406 -8.21875 12.328125 -8.09375 C 12.460938 -7.976562 12.53125 -7.828125 12.53125 -7.640625 C 12.53125 -7.566406 12.507812 -7.460938 12.46875 -7.328125 L 9.96875 -0.40625 C 9.90625 -0.25 9.800781 -0.128906 9.65625 -0.046875 C 9.507812 0.0351562 9.351562 0.078125 9.1875 0.078125 C 9.007812 0.078125 8.847656 0.0351562 8.703125 -0.046875 C 8.554688 -0.128906 8.457031 -0.25 8.40625 -0.40625 L 6.46875 -5.890625 L 4.5 -0.40625 C 4.4375 -0.25 4.332031 -0.128906 4.1875 -0.046875 C 4.050781 0.0351562 3.894531 0.078125 3.71875 0.078125 C 3.550781 0.078125 3.394531 0.0351562 3.25 -0.046875 C 3.101562 -0.128906 3.003906 -0.25 2.953125 -0.40625 L 0.453125 -7.328125 C 0.410156 -7.453125 0.390625 -7.554688 0.390625 -7.640625 C 0.390625 -7.828125 0.460938 -7.976562 0.609375 -8.09375 C 0.753906 -8.21875 0.925781 -8.28125 1.125 -8.28125 C 1.269531 -8.28125 1.40625 -8.238281 1.53125 -8.15625 C 1.65625 -8.082031 1.742188 -7.96875 1.796875 -7.8125 L 3.78125 -2.125 L 5.8125 -7.78125 C 5.875 -7.9375 5.96875 -8.054688 6.09375 -8.140625 C 6.21875 -8.234375 6.351562 -8.28125 6.5 -8.28125 C 6.644531 -8.28125 6.78125 -8.234375 6.90625 -8.140625 C 7.03125 -8.054688 7.125 -7.929688 7.1875 -7.765625 L 9.15625 -2.046875 Z M 11.171875 -7.8125 "></path></g></g><g style="fill:#2f243a;fill-opacity:1;"><g transform="translate(263.895222, 301.306883)"><path style="stroke:none" d="M 1.625 0.0625 C 1.40625 0.0625 1.226562 -0.00390625 1.09375 -0.140625 C 0.957031 -0.273438 0.890625 -0.457031 0.890625 -0.6875 L 0.890625 -7.515625 C 0.890625 -7.742188 0.957031 -7.925781 1.09375 -8.0625 C 1.226562 -8.195312 1.40625 -8.265625 1.625 -8.265625 C 1.863281 -8.265625 2.050781 -8.195312 2.1875 -8.0625 C 2.320312 -7.925781 2.390625 -7.742188 2.390625 -7.515625 L 2.390625 -0.6875 C 2.390625 -0.457031 2.320312 -0.273438 2.1875 -0.140625 C 2.050781 -0.00390625 1.863281 0.0625 1.625 0.0625 Z M 1.625 0.0625 "></path></g></g><g style="fill:#2f243a;fill-opacity:1;"><g transform="translate(270.286049, 301.306883)"><path style="stroke:none" d="M 1.609375 0 C 1.378906 0 1.203125 -0.0625 1.078125 -0.1875 C 0.953125 -0.3125 0.890625 -0.484375 0.890625 -0.703125 L 0.890625 -7.5 C 0.890625 -7.71875 0.953125 -7.890625 1.078125 -8.015625 C 1.203125 -8.140625 1.378906 -8.203125 1.609375 -8.203125 L 3.90625 -8.203125 C 5.25 -8.203125 6.289062 -7.84375 7.03125 -7.125 C 7.769531 -6.40625 8.140625 -5.398438 8.140625 -4.109375 C 8.140625 -2.804688 7.769531 -1.796875 7.03125 -1.078125 C 6.289062 -0.359375 5.25 0 3.90625 0 Z M 3.8125 -1.21875 C 5.695312 -1.21875 6.640625 -2.179688 6.640625 -4.109375 C 6.640625 -6.023438 5.695312 -6.984375 3.8125 -6.984375 L 2.390625 -6.984375 L 2.390625 -1.21875 Z M 3.8125 -1.21875 "></path></g></g><g style="fill:#2f243a;fill-opacity:1;"><g transform="translate(282.181014, 301.306883)"><path style="stroke:none" d="M 1.609375 0 C 1.378906 0 1.203125 -0.0625 1.078125 -0.1875 C 0.953125 -0.3125 0.890625 -0.484375 0.890625 -0.703125 L 0.890625 -7.5 C 0.890625 -7.71875 0.953125 -7.890625 1.078125 -8.015625 C 1.203125 -8.140625 1.378906 -8.203125 1.609375 -8.203125 L 5.8125 -8.203125 C 6.03125 -8.203125 6.203125 -8.148438 6.328125 -8.046875 C 6.453125 -7.953125 6.515625 -7.8125 6.515625 -7.625 C 6.515625 -7.425781 6.453125 -7.273438 6.328125 -7.171875 C 6.203125 -7.066406 6.03125 -7.015625 5.8125 -7.015625 L 2.34375 -7.015625 L 2.34375 -4.765625 L 5.578125 -4.765625 C 5.796875 -4.765625 5.96875 -4.710938 6.09375 -4.609375 C 6.21875 -4.503906 6.28125 -4.359375 6.28125 -4.171875 C 6.28125 -3.984375 6.21875 -3.835938 6.09375 -3.734375 C 5.96875 -3.628906 5.796875 -3.578125 5.578125 -3.578125 L 2.34375 -3.578125 L 2.34375 -1.1875 L 5.8125 -1.1875 C 6.03125 -1.1875 6.203125 -1.132812 6.328125 -1.03125 C 6.453125 -0.925781 6.515625 -0.773438 6.515625 -0.578125 C 6.515625 -0.390625 6.453125 -0.242188 6.328125 -0.140625 C 6.203125 -0.046875 6.03125 0 5.8125 0 Z M 1.609375 0 "></path></g></g></g></svg><style>@media (prefers-color-scheme: light) { :root { filter: none; } }
@media (prefers-color-scheme: dark) { :root { filter: none; } }
</style></svg>